<mxfile host="app.diagrams.net" modified="2023-06-16T16:25:36.768Z" agent="Mozilla/5.0 (Windows NT 10.0; Win64; x64) AppleWebKit/537.36 (KHTML, like Gecko) Chrome/114.0.0.0 Safari/537.36" etag="iCTZekAgruw4sfRWnMqD" version="21.4.0" type="device">
  <diagram id="C5RBs43oDa-KdzZeNtuy" name="Page-1">
    <mxGraphModel dx="1820" dy="883" grid="1" gridSize="10" guides="1" tooltips="1" connect="1" arrows="1" fold="1" page="1" pageScale="1" pageWidth="827" pageHeight="1169" math="0" shadow="0">
      <root>
        <mxCell id="WIyWlLk6GJQsqaUBKTNV-0" />
        <mxCell id="WIyWlLk6GJQsqaUBKTNV-1" parent="WIyWlLk6GJQsqaUBKTNV-0" />
        <mxCell id="ucVGV_VNWv9GXHvt-POz-1" value="ACCOUNT" style="rounded=0;whiteSpace=wrap;html=1;" parent="WIyWlLk6GJQsqaUBKTNV-1" vertex="1">
          <mxGeometry x="720" y="140" width="120" height="60" as="geometry" />
        </mxCell>
        <mxCell id="ucVGV_VNWv9GXHvt-POz-2" value="APPARTIENE" style="rhombus;whiteSpace=wrap;html=1;" parent="WIyWlLk6GJQsqaUBKTNV-1" vertex="1">
          <mxGeometry x="940" y="420" width="80" height="80" as="geometry" />
        </mxCell>
        <mxCell id="ucVGV_VNWv9GXHvt-POz-3" value="" style="endArrow=classic;startArrow=classic;html=1;rounded=0;exitX=1;exitY=1;exitDx=0;exitDy=0;entryX=0;entryY=0.5;entryDx=0;entryDy=0;" parent="WIyWlLk6GJQsqaUBKTNV-1" source="ucVGV_VNWv9GXHvt-POz-1" target="ucVGV_VNWv9GXHvt-POz-2" edge="1">
          <mxGeometry width="50" height="50" relative="1" as="geometry">
            <mxPoint x="820" y="720" as="sourcePoint" />
            <mxPoint x="870" y="670" as="targetPoint" />
          </mxGeometry>
        </mxCell>
        <mxCell id="ucVGV_VNWv9GXHvt-POz-4" value="VIDEO" style="rounded=0;whiteSpace=wrap;html=1;" parent="WIyWlLk6GJQsqaUBKTNV-1" vertex="1">
          <mxGeometry x="1201" y="500" width="120" height="60" as="geometry" />
        </mxCell>
        <mxCell id="ucVGV_VNWv9GXHvt-POz-5" value="" style="endArrow=classic;startArrow=classic;html=1;rounded=0;exitX=0;exitY=0;exitDx=0;exitDy=0;entryX=1;entryY=0.5;entryDx=0;entryDy=0;" parent="WIyWlLk6GJQsqaUBKTNV-1" source="ucVGV_VNWv9GXHvt-POz-4" target="ucVGV_VNWv9GXHvt-POz-2" edge="1">
          <mxGeometry width="50" height="50" relative="1" as="geometry">
            <mxPoint x="820" y="720" as="sourcePoint" />
            <mxPoint x="870" y="670" as="targetPoint" />
          </mxGeometry>
        </mxCell>
        <mxCell id="ucVGV_VNWv9GXHvt-POz-7" value="E&#39; ISCRITTO" style="rhombus;whiteSpace=wrap;html=1;" parent="WIyWlLk6GJQsqaUBKTNV-1" vertex="1">
          <mxGeometry x="374" y="100" width="80" height="80" as="geometry" />
        </mxCell>
        <mxCell id="ucVGV_VNWv9GXHvt-POz-8" value="" style="endArrow=classic;startArrow=classic;html=1;rounded=0;exitX=1;exitY=0.5;exitDx=0;exitDy=0;entryX=0;entryY=0.5;entryDx=0;entryDy=0;" parent="WIyWlLk6GJQsqaUBKTNV-1" source="ucVGV_VNWv9GXHvt-POz-7" target="ucVGV_VNWv9GXHvt-POz-1" edge="1">
          <mxGeometry width="50" height="50" relative="1" as="geometry">
            <mxPoint x="820" y="720" as="sourcePoint" />
            <mxPoint x="870" y="670" as="targetPoint" />
          </mxGeometry>
        </mxCell>
        <mxCell id="ucVGV_VNWv9GXHvt-POz-12" value="LIVE" style="rounded=0;whiteSpace=wrap;html=1;" parent="WIyWlLk6GJQsqaUBKTNV-1" vertex="1">
          <mxGeometry x="1201" y="600" width="120" height="60" as="geometry" />
        </mxCell>
        <mxCell id="ucVGV_VNWv9GXHvt-POz-13" value="" style="shape=flexArrow;endArrow=classic;html=1;rounded=0;entryX=0.5;entryY=0;entryDx=0;entryDy=0;exitX=0.5;exitY=1;exitDx=0;exitDy=0;" parent="WIyWlLk6GJQsqaUBKTNV-1" source="ucVGV_VNWv9GXHvt-POz-4" target="ucVGV_VNWv9GXHvt-POz-12" edge="1">
          <mxGeometry width="50" height="50" relative="1" as="geometry">
            <mxPoint x="920" y="740" as="sourcePoint" />
            <mxPoint x="970" y="690" as="targetPoint" />
          </mxGeometry>
        </mxCell>
        <mxCell id="ucVGV_VNWv9GXHvt-POz-14" value="COMMENTO" style="rounded=0;whiteSpace=wrap;html=1;" parent="WIyWlLk6GJQsqaUBKTNV-1" vertex="1">
          <mxGeometry x="720" y="706" width="120" height="60" as="geometry" />
        </mxCell>
        <mxCell id="ucVGV_VNWv9GXHvt-POz-15" value="" style="shape=flexArrow;endArrow=classic;html=1;rounded=0;exitX=0.5;exitY=1;exitDx=0;exitDy=0;entryX=0.5;entryY=0;entryDx=0;entryDy=0;" parent="WIyWlLk6GJQsqaUBKTNV-1" source="ucVGV_VNWv9GXHvt-POz-14" target="ucVGV_VNWv9GXHvt-POz-17" edge="1">
          <mxGeometry width="50" height="50" relative="1" as="geometry">
            <mxPoint x="730" y="726" as="sourcePoint" />
            <mxPoint x="750" y="806" as="targetPoint" />
          </mxGeometry>
        </mxCell>
        <mxCell id="ucVGV_VNWv9GXHvt-POz-17" value="DONAZIONE" style="rounded=0;whiteSpace=wrap;html=1;" parent="WIyWlLk6GJQsqaUBKTNV-1" vertex="1">
          <mxGeometry x="720" y="806" width="120" height="60" as="geometry" />
        </mxCell>
        <mxCell id="ucVGV_VNWv9GXHvt-POz-19" value="" style="endArrow=classic;startArrow=classic;html=1;rounded=0;entryX=0.5;entryY=1;entryDx=0;entryDy=0;exitX=0.5;exitY=0;exitDx=0;exitDy=0;" parent="WIyWlLk6GJQsqaUBKTNV-1" source="ucVGV_VNWv9GXHvt-POz-20" target="ucVGV_VNWv9GXHvt-POz-1" edge="1">
          <mxGeometry width="50" height="50" relative="1" as="geometry">
            <mxPoint x="820" y="650" as="sourcePoint" />
            <mxPoint x="870" y="680" as="targetPoint" />
          </mxGeometry>
        </mxCell>
        <mxCell id="ucVGV_VNWv9GXHvt-POz-20" value="FA" style="rhombus;whiteSpace=wrap;html=1;" parent="WIyWlLk6GJQsqaUBKTNV-1" vertex="1">
          <mxGeometry x="740" y="520" width="80" height="80" as="geometry" />
        </mxCell>
        <mxCell id="ucVGV_VNWv9GXHvt-POz-21" value="" style="endArrow=classic;startArrow=classic;html=1;rounded=0;entryX=0.5;entryY=1;entryDx=0;entryDy=0;exitX=0.5;exitY=0;exitDx=0;exitDy=0;" parent="WIyWlLk6GJQsqaUBKTNV-1" source="ucVGV_VNWv9GXHvt-POz-14" target="ucVGV_VNWv9GXHvt-POz-20" edge="1">
          <mxGeometry width="50" height="50" relative="1" as="geometry">
            <mxPoint x="770" y="730" as="sourcePoint" />
            <mxPoint x="820" y="680" as="targetPoint" />
          </mxGeometry>
        </mxCell>
        <mxCell id="ucVGV_VNWv9GXHvt-POz-27" value="HA" style="rhombus;whiteSpace=wrap;html=1;" parent="WIyWlLk6GJQsqaUBKTNV-1" vertex="1">
          <mxGeometry x="454" y="160" width="80" height="80" as="geometry" />
        </mxCell>
        <mxCell id="ucVGV_VNWv9GXHvt-POz-28" value="" style="endArrow=classic;startArrow=classic;html=1;rounded=0;exitX=1;exitY=0.5;exitDx=0;exitDy=0;entryX=0;entryY=0.75;entryDx=0;entryDy=0;" parent="WIyWlLk6GJQsqaUBKTNV-1" source="ucVGV_VNWv9GXHvt-POz-27" target="ucVGV_VNWv9GXHvt-POz-1" edge="1">
          <mxGeometry width="50" height="50" relative="1" as="geometry">
            <mxPoint x="820" y="730" as="sourcePoint" />
            <mxPoint x="870" y="680" as="targetPoint" />
          </mxGeometry>
        </mxCell>
        <mxCell id="ucVGV_VNWv9GXHvt-POz-29" value="" style="endArrow=classic;startArrow=classic;html=1;rounded=0;exitX=1;exitY=0.5;exitDx=0;exitDy=0;entryX=0;entryY=0.5;entryDx=0;entryDy=0;" parent="WIyWlLk6GJQsqaUBKTNV-1" source="ucVGV_VNWv9GXHvt-POz-14" target="ucVGV_VNWv9GXHvt-POz-30" edge="1">
          <mxGeometry width="50" height="50" relative="1" as="geometry">
            <mxPoint x="770" y="730" as="sourcePoint" />
            <mxPoint x="840" y="730" as="targetPoint" />
          </mxGeometry>
        </mxCell>
        <mxCell id="ucVGV_VNWv9GXHvt-POz-30" value="HA" style="rhombus;whiteSpace=wrap;html=1;" parent="WIyWlLk6GJQsqaUBKTNV-1" vertex="1">
          <mxGeometry x="1000" y="586" width="80" height="80" as="geometry" />
        </mxCell>
        <mxCell id="ucVGV_VNWv9GXHvt-POz-31" value="" style="endArrow=classic;startArrow=classic;html=1;rounded=0;entryX=0;entryY=0.5;entryDx=0;entryDy=0;exitX=1;exitY=0.5;exitDx=0;exitDy=0;" parent="WIyWlLk6GJQsqaUBKTNV-1" source="ucVGV_VNWv9GXHvt-POz-30" target="ucVGV_VNWv9GXHvt-POz-4" edge="1">
          <mxGeometry width="50" height="50" relative="1" as="geometry">
            <mxPoint x="790" y="890" as="sourcePoint" />
            <mxPoint x="920" y="800" as="targetPoint" />
          </mxGeometry>
        </mxCell>
        <mxCell id="ucVGV_VNWv9GXHvt-POz-32" value="LIKEVIDEO" style="rounded=0;whiteSpace=wrap;html=1;" parent="WIyWlLk6GJQsqaUBKTNV-1" vertex="1">
          <mxGeometry x="1060" y="806" width="120" height="60" as="geometry" />
        </mxCell>
        <mxCell id="ucVGV_VNWv9GXHvt-POz-33" value="VIEWS" style="rounded=0;whiteSpace=wrap;html=1;" parent="WIyWlLk6GJQsqaUBKTNV-1" vertex="1">
          <mxGeometry x="1321" y="200" width="120" height="60" as="geometry" />
        </mxCell>
        <mxCell id="ucVGV_VNWv9GXHvt-POz-36" value="SEGNALAZIONE_&lt;br&gt;COMMENTI" style="whiteSpace=wrap;html=1;" parent="WIyWlLk6GJQsqaUBKTNV-1" vertex="1">
          <mxGeometry x="260" y="490" width="120" height="60" as="geometry" />
        </mxCell>
        <mxCell id="ucVGV_VNWv9GXHvt-POz-38" value="SEGNALAZIONE_&lt;br&gt;VIDEO" style="whiteSpace=wrap;html=1;" parent="WIyWlLk6GJQsqaUBKTNV-1" vertex="1">
          <mxGeometry x="1060" y="320" width="120" height="60" as="geometry" />
        </mxCell>
        <mxCell id="ucVGV_VNWv9GXHvt-POz-39" value="LIKECOMMENTI" style="whiteSpace=wrap;html=1;" parent="WIyWlLk6GJQsqaUBKTNV-1" vertex="1">
          <mxGeometry x="420" y="490" width="120" height="60" as="geometry" />
        </mxCell>
        <mxCell id="VhTY_aMwYe6NqTjl9KjU-4" value="HA" style="rhombus;whiteSpace=wrap;html=1;" parent="WIyWlLk6GJQsqaUBKTNV-1" vertex="1">
          <mxGeometry x="1211" y="110" width="80" height="80" as="geometry" />
        </mxCell>
        <mxCell id="VhTY_aMwYe6NqTjl9KjU-6" value="" style="edgeStyle=none;orthogonalLoop=1;jettySize=auto;html=1;endArrow=classic;startArrow=classic;endSize=8;startSize=8;rounded=0;entryX=0;entryY=0.5;entryDx=0;entryDy=0;exitX=1;exitY=0.5;exitDx=0;exitDy=0;" parent="WIyWlLk6GJQsqaUBKTNV-1" source="ucVGV_VNWv9GXHvt-POz-1" target="VhTY_aMwYe6NqTjl9KjU-4" edge="1">
          <mxGeometry width="100" relative="1" as="geometry">
            <mxPoint x="830" y="420" as="sourcePoint" />
            <mxPoint x="930" y="420" as="targetPoint" />
            <Array as="points" />
          </mxGeometry>
        </mxCell>
        <mxCell id="VhTY_aMwYe6NqTjl9KjU-7" value="" style="edgeStyle=none;orthogonalLoop=1;jettySize=auto;html=1;endArrow=classic;startArrow=classic;endSize=8;startSize=8;rounded=0;exitX=1;exitY=0.5;exitDx=0;exitDy=0;entryX=0.5;entryY=0;entryDx=0;entryDy=0;" parent="WIyWlLk6GJQsqaUBKTNV-1" source="VhTY_aMwYe6NqTjl9KjU-4" target="VhTY_aMwYe6NqTjl9KjU-11" edge="1">
          <mxGeometry width="100" relative="1" as="geometry">
            <mxPoint x="980" y="340" as="sourcePoint" />
            <mxPoint x="1530" y="170" as="targetPoint" />
            <Array as="points">
              <mxPoint x="1530" y="150" />
            </Array>
          </mxGeometry>
        </mxCell>
        <mxCell id="VhTY_aMwYe6NqTjl9KjU-11" value="PLAYLIST" style="whiteSpace=wrap;html=1;" parent="WIyWlLk6GJQsqaUBKTNV-1" vertex="1">
          <mxGeometry x="1470" y="310" width="120" height="60" as="geometry" />
        </mxCell>
        <mxCell id="VhTY_aMwYe6NqTjl9KjU-12" value="E&#39; SALVATO" style="rhombus;whiteSpace=wrap;html=1;" parent="WIyWlLk6GJQsqaUBKTNV-1" vertex="1">
          <mxGeometry x="1490" y="490" width="80" height="80" as="geometry" />
        </mxCell>
        <mxCell id="VhTY_aMwYe6NqTjl9KjU-13" value="" style="edgeStyle=none;orthogonalLoop=1;jettySize=auto;html=1;endArrow=classic;startArrow=classic;endSize=8;startSize=8;rounded=0;exitX=0.5;exitY=0;exitDx=0;exitDy=0;entryX=0.5;entryY=1;entryDx=0;entryDy=0;" parent="WIyWlLk6GJQsqaUBKTNV-1" source="VhTY_aMwYe6NqTjl9KjU-12" target="VhTY_aMwYe6NqTjl9KjU-11" edge="1">
          <mxGeometry width="100" relative="1" as="geometry">
            <mxPoint x="1520" y="740" as="sourcePoint" />
            <mxPoint x="1620" y="740" as="targetPoint" />
            <Array as="points" />
          </mxGeometry>
        </mxCell>
        <mxCell id="VhTY_aMwYe6NqTjl9KjU-14" value="" style="edgeStyle=none;orthogonalLoop=1;jettySize=auto;html=1;endArrow=classic;startArrow=classic;endSize=8;startSize=8;rounded=0;exitX=0;exitY=0.5;exitDx=0;exitDy=0;entryX=1;entryY=0.5;entryDx=0;entryDy=0;" parent="WIyWlLk6GJQsqaUBKTNV-1" source="VhTY_aMwYe6NqTjl9KjU-12" target="ucVGV_VNWv9GXHvt-POz-4" edge="1">
          <mxGeometry width="100" relative="1" as="geometry">
            <mxPoint x="1460" y="780" as="sourcePoint" />
            <mxPoint x="1560" y="780" as="targetPoint" />
            <Array as="points" />
          </mxGeometry>
        </mxCell>
        <mxCell id="VhTY_aMwYe6NqTjl9KjU-15" value="ISCRIZIONE" style="whiteSpace=wrap;html=1;" parent="WIyWlLk6GJQsqaUBKTNV-1" vertex="1">
          <mxGeometry x="110" y="140" width="120" height="60" as="geometry" />
        </mxCell>
        <mxCell id="VhTY_aMwYe6NqTjl9KjU-16" value="ABBONAMENTO" style="whiteSpace=wrap;html=1;" parent="WIyWlLk6GJQsqaUBKTNV-1" vertex="1">
          <mxGeometry x="110" y="240" width="120" height="60" as="geometry" />
        </mxCell>
        <mxCell id="VhTY_aMwYe6NqTjl9KjU-17" value="" style="edgeStyle=none;orthogonalLoop=1;jettySize=auto;html=1;shape=flexArrow;rounded=1;startSize=8;endSize=8;exitX=0.5;exitY=1;exitDx=0;exitDy=0;" parent="WIyWlLk6GJQsqaUBKTNV-1" source="VhTY_aMwYe6NqTjl9KjU-15" target="VhTY_aMwYe6NqTjl9KjU-16" edge="1">
          <mxGeometry width="100" relative="1" as="geometry">
            <mxPoint x="320" y="850" as="sourcePoint" />
            <mxPoint x="420" y="850" as="targetPoint" />
            <Array as="points" />
          </mxGeometry>
        </mxCell>
        <mxCell id="VhTY_aMwYe6NqTjl9KjU-19" value="" style="edgeStyle=none;orthogonalLoop=1;jettySize=auto;html=1;endArrow=classic;startArrow=classic;endSize=8;startSize=8;rounded=0;entryX=0;entryY=0.5;entryDx=0;entryDy=0;exitX=1;exitY=0;exitDx=0;exitDy=0;" parent="WIyWlLk6GJQsqaUBKTNV-1" source="VhTY_aMwYe6NqTjl9KjU-15" target="ucVGV_VNWv9GXHvt-POz-7" edge="1">
          <mxGeometry width="100" relative="1" as="geometry">
            <mxPoint x="270" y="660" as="sourcePoint" />
            <mxPoint x="370" y="660" as="targetPoint" />
            <Array as="points" />
          </mxGeometry>
        </mxCell>
        <mxCell id="VhTY_aMwYe6NqTjl9KjU-20" value="" style="edgeStyle=none;orthogonalLoop=1;jettySize=auto;html=1;endArrow=classic;startArrow=classic;endSize=8;startSize=8;rounded=0;entryX=0;entryY=0.5;entryDx=0;entryDy=0;exitX=1;exitY=1;exitDx=0;exitDy=0;" parent="WIyWlLk6GJQsqaUBKTNV-1" source="VhTY_aMwYe6NqTjl9KjU-15" target="ucVGV_VNWv9GXHvt-POz-27" edge="1">
          <mxGeometry width="100" relative="1" as="geometry">
            <mxPoint x="310" y="690" as="sourcePoint" />
            <mxPoint x="410" y="690" as="targetPoint" />
            <Array as="points" />
          </mxGeometry>
        </mxCell>
        <mxCell id="VhTY_aMwYe6NqTjl9KjU-22" value="FA" style="rhombus;whiteSpace=wrap;html=1;" parent="WIyWlLk6GJQsqaUBKTNV-1" vertex="1">
          <mxGeometry x="990" y="180" width="80" height="80" as="geometry" />
        </mxCell>
        <mxCell id="VhTY_aMwYe6NqTjl9KjU-23" value="" style="edgeStyle=none;orthogonalLoop=1;jettySize=auto;html=1;endArrow=classic;startArrow=classic;endSize=8;startSize=8;rounded=0;exitX=1;exitY=0.5;exitDx=0;exitDy=0;entryX=0;entryY=0.5;entryDx=0;entryDy=0;" parent="WIyWlLk6GJQsqaUBKTNV-1" source="VhTY_aMwYe6NqTjl9KjU-22" target="ucVGV_VNWv9GXHvt-POz-33" edge="1">
          <mxGeometry width="100" relative="1" as="geometry">
            <mxPoint x="1100" y="530" as="sourcePoint" />
            <mxPoint x="1200" y="530" as="targetPoint" />
            <Array as="points" />
          </mxGeometry>
        </mxCell>
        <mxCell id="VhTY_aMwYe6NqTjl9KjU-24" value="" style="edgeStyle=none;orthogonalLoop=1;jettySize=auto;html=1;endArrow=classic;startArrow=classic;endSize=8;startSize=8;rounded=0;entryX=0;entryY=0.5;entryDx=0;entryDy=0;" parent="WIyWlLk6GJQsqaUBKTNV-1" target="VhTY_aMwYe6NqTjl9KjU-22" edge="1">
          <mxGeometry width="100" relative="1" as="geometry">
            <mxPoint x="840" y="180" as="sourcePoint" />
            <mxPoint x="990" y="500" as="targetPoint" />
            <Array as="points" />
          </mxGeometry>
        </mxCell>
        <mxCell id="VhTY_aMwYe6NqTjl9KjU-25" value="HA" style="rhombus;whiteSpace=wrap;html=1;" parent="WIyWlLk6GJQsqaUBKTNV-1" vertex="1">
          <mxGeometry x="1341" y="320" width="80" height="80" as="geometry" />
        </mxCell>
        <mxCell id="VhTY_aMwYe6NqTjl9KjU-26" value="" style="edgeStyle=none;orthogonalLoop=1;jettySize=auto;html=1;endArrow=classic;startArrow=classic;endSize=8;startSize=8;rounded=0;exitX=0.9;exitY=-0.033;exitDx=0;exitDy=0;entryX=0.5;entryY=1;entryDx=0;entryDy=0;exitPerimeter=0;" parent="WIyWlLk6GJQsqaUBKTNV-1" source="ucVGV_VNWv9GXHvt-POz-4" target="VhTY_aMwYe6NqTjl9KjU-25" edge="1">
          <mxGeometry width="100" relative="1" as="geometry">
            <mxPoint x="1220" y="630" as="sourcePoint" />
            <mxPoint x="1320" y="630" as="targetPoint" />
            <Array as="points" />
          </mxGeometry>
        </mxCell>
        <mxCell id="VhTY_aMwYe6NqTjl9KjU-27" value="" style="edgeStyle=none;orthogonalLoop=1;jettySize=auto;html=1;endArrow=classic;startArrow=classic;endSize=8;startSize=8;rounded=0;exitX=0.5;exitY=1;exitDx=0;exitDy=0;entryX=0.5;entryY=0;entryDx=0;entryDy=0;" parent="WIyWlLk6GJQsqaUBKTNV-1" source="ucVGV_VNWv9GXHvt-POz-33" target="VhTY_aMwYe6NqTjl9KjU-25" edge="1">
          <mxGeometry width="100" relative="1" as="geometry">
            <mxPoint x="1341" y="540" as="sourcePoint" />
            <mxPoint x="1441" y="540" as="targetPoint" />
            <Array as="points" />
          </mxGeometry>
        </mxCell>
        <mxCell id="VhTY_aMwYe6NqTjl9KjU-30" value="" style="edgeStyle=none;orthogonalLoop=1;jettySize=auto;html=1;endArrow=classic;startArrow=classic;endSize=8;startSize=8;rounded=0;exitX=0.5;exitY=0;exitDx=0;exitDy=0;" parent="WIyWlLk6GJQsqaUBKTNV-1" source="ucVGV_VNWv9GXHvt-POz-36" target="VhTY_aMwYe6NqTjl9KjU-31" edge="1">
          <mxGeometry width="100" relative="1" as="geometry">
            <mxPoint x="490" y="760" as="sourcePoint" />
            <mxPoint x="530" y="730" as="targetPoint" />
            <Array as="points" />
          </mxGeometry>
        </mxCell>
        <mxCell id="VhTY_aMwYe6NqTjl9KjU-31" value="FA" style="rhombus;whiteSpace=wrap;html=1;" parent="WIyWlLk6GJQsqaUBKTNV-1" vertex="1">
          <mxGeometry x="280" y="270" width="80" height="80" as="geometry" />
        </mxCell>
        <mxCell id="VhTY_aMwYe6NqTjl9KjU-33" value="" style="edgeStyle=none;orthogonalLoop=1;jettySize=auto;html=1;endArrow=classic;startArrow=classic;endSize=8;startSize=8;rounded=0;exitX=1;exitY=0.5;exitDx=0;exitDy=0;entryX=0;entryY=1;entryDx=0;entryDy=0;" parent="WIyWlLk6GJQsqaUBKTNV-1" source="VhTY_aMwYe6NqTjl9KjU-31" target="ucVGV_VNWv9GXHvt-POz-1" edge="1">
          <mxGeometry width="100" relative="1" as="geometry">
            <mxPoint x="490" y="810" as="sourcePoint" />
            <mxPoint x="590" y="810" as="targetPoint" />
            <Array as="points" />
          </mxGeometry>
        </mxCell>
        <mxCell id="VhTY_aMwYe6NqTjl9KjU-36" value="RICEVE" style="rhombus;whiteSpace=wrap;html=1;" parent="WIyWlLk6GJQsqaUBKTNV-1" vertex="1">
          <mxGeometry x="430" y="696" width="80" height="80" as="geometry" />
        </mxCell>
        <mxCell id="VhTY_aMwYe6NqTjl9KjU-37" value="" style="edgeStyle=none;orthogonalLoop=1;jettySize=auto;html=1;endArrow=classic;startArrow=classic;endSize=8;startSize=8;rounded=0;exitX=1;exitY=0.5;exitDx=0;exitDy=0;entryX=0;entryY=0.5;entryDx=0;entryDy=0;" parent="WIyWlLk6GJQsqaUBKTNV-1" source="VhTY_aMwYe6NqTjl9KjU-36" target="ucVGV_VNWv9GXHvt-POz-14" edge="1">
          <mxGeometry width="100" relative="1" as="geometry">
            <mxPoint x="570" y="880" as="sourcePoint" />
            <mxPoint x="670" y="880" as="targetPoint" />
            <Array as="points" />
          </mxGeometry>
        </mxCell>
        <mxCell id="VhTY_aMwYe6NqTjl9KjU-38" value="" style="edgeStyle=none;orthogonalLoop=1;jettySize=auto;html=1;endArrow=classic;startArrow=classic;endSize=8;startSize=8;rounded=0;entryX=0;entryY=0.5;entryDx=0;entryDy=0;exitX=0.5;exitY=1;exitDx=0;exitDy=0;" parent="WIyWlLk6GJQsqaUBKTNV-1" source="ucVGV_VNWv9GXHvt-POz-36" target="VhTY_aMwYe6NqTjl9KjU-36" edge="1">
          <mxGeometry width="100" relative="1" as="geometry">
            <mxPoint x="460" y="830" as="sourcePoint" />
            <mxPoint x="560" y="830" as="targetPoint" />
            <Array as="points" />
          </mxGeometry>
        </mxCell>
        <mxCell id="VhTY_aMwYe6NqTjl9KjU-40" value="FA" style="rhombus;whiteSpace=wrap;html=1;" parent="WIyWlLk6GJQsqaUBKTNV-1" vertex="1">
          <mxGeometry x="440" y="320" width="80" height="80" as="geometry" />
        </mxCell>
        <mxCell id="VhTY_aMwYe6NqTjl9KjU-41" value="" style="edgeStyle=none;orthogonalLoop=1;jettySize=auto;html=1;endArrow=classic;startArrow=classic;endSize=8;startSize=8;rounded=0;exitX=0.5;exitY=0;exitDx=0;exitDy=0;entryX=0.25;entryY=1;entryDx=0;entryDy=0;" parent="WIyWlLk6GJQsqaUBKTNV-1" source="VhTY_aMwYe6NqTjl9KjU-40" target="ucVGV_VNWv9GXHvt-POz-1" edge="1">
          <mxGeometry width="100" relative="1" as="geometry">
            <mxPoint x="660" y="620" as="sourcePoint" />
            <mxPoint x="760" y="620" as="targetPoint" />
            <Array as="points" />
          </mxGeometry>
        </mxCell>
        <mxCell id="VhTY_aMwYe6NqTjl9KjU-42" value="" style="edgeStyle=none;orthogonalLoop=1;jettySize=auto;html=1;endArrow=classic;startArrow=classic;endSize=8;startSize=8;rounded=0;exitX=0.5;exitY=1;exitDx=0;exitDy=0;entryX=0.5;entryY=0;entryDx=0;entryDy=0;" parent="WIyWlLk6GJQsqaUBKTNV-1" source="VhTY_aMwYe6NqTjl9KjU-40" target="ucVGV_VNWv9GXHvt-POz-39" edge="1">
          <mxGeometry width="100" relative="1" as="geometry">
            <mxPoint x="600" y="760" as="sourcePoint" />
            <mxPoint x="700" y="760" as="targetPoint" />
            <Array as="points" />
          </mxGeometry>
        </mxCell>
        <mxCell id="VhTY_aMwYe6NqTjl9KjU-43" value="RICEVE" style="rhombus;whiteSpace=wrap;html=1;" parent="WIyWlLk6GJQsqaUBKTNV-1" vertex="1">
          <mxGeometry x="620" y="520" width="80" height="80" as="geometry" />
        </mxCell>
        <mxCell id="VhTY_aMwYe6NqTjl9KjU-46" value="" style="edgeStyle=none;orthogonalLoop=1;jettySize=auto;html=1;endArrow=classic;startArrow=classic;endSize=8;startSize=8;rounded=0;exitX=1;exitY=0.5;exitDx=0;exitDy=0;entryX=0.5;entryY=0;entryDx=0;entryDy=0;" parent="WIyWlLk6GJQsqaUBKTNV-1" source="ucVGV_VNWv9GXHvt-POz-39" target="VhTY_aMwYe6NqTjl9KjU-43" edge="1">
          <mxGeometry width="100" relative="1" as="geometry">
            <mxPoint x="610" y="750" as="sourcePoint" />
            <mxPoint x="710" y="750" as="targetPoint" />
            <Array as="points" />
          </mxGeometry>
        </mxCell>
        <mxCell id="VhTY_aMwYe6NqTjl9KjU-47" value="" style="edgeStyle=none;orthogonalLoop=1;jettySize=auto;html=1;endArrow=classic;startArrow=classic;endSize=8;startSize=8;rounded=0;entryX=0.5;entryY=1;entryDx=0;entryDy=0;exitX=0;exitY=0;exitDx=0;exitDy=0;" parent="WIyWlLk6GJQsqaUBKTNV-1" source="ucVGV_VNWv9GXHvt-POz-14" target="VhTY_aMwYe6NqTjl9KjU-43" edge="1">
          <mxGeometry width="100" relative="1" as="geometry">
            <mxPoint x="490" y="700" as="sourcePoint" />
            <mxPoint x="570" y="720" as="targetPoint" />
            <Array as="points" />
          </mxGeometry>
        </mxCell>
        <mxCell id="VhTY_aMwYe6NqTjl9KjU-50" value="METTE" style="rhombus;whiteSpace=wrap;html=1;" parent="WIyWlLk6GJQsqaUBKTNV-1" vertex="1">
          <mxGeometry x="870" y="506" width="80" height="80" as="geometry" />
        </mxCell>
        <mxCell id="VhTY_aMwYe6NqTjl9KjU-51" value="" style="edgeStyle=none;orthogonalLoop=1;jettySize=auto;html=1;endArrow=classic;startArrow=classic;endSize=8;startSize=8;rounded=0;exitX=0.75;exitY=1;exitDx=0;exitDy=0;entryX=0.5;entryY=0;entryDx=0;entryDy=0;" parent="WIyWlLk6GJQsqaUBKTNV-1" source="ucVGV_VNWv9GXHvt-POz-1" target="VhTY_aMwYe6NqTjl9KjU-50" edge="1">
          <mxGeometry width="100" relative="1" as="geometry">
            <mxPoint x="800" y="550" as="sourcePoint" />
            <mxPoint x="900" y="550" as="targetPoint" />
            <Array as="points" />
          </mxGeometry>
        </mxCell>
        <mxCell id="VhTY_aMwYe6NqTjl9KjU-52" value="" style="edgeStyle=none;orthogonalLoop=1;jettySize=auto;html=1;endArrow=classic;startArrow=classic;endSize=8;startSize=8;rounded=0;exitX=0.5;exitY=1;exitDx=0;exitDy=0;entryX=0;entryY=0.5;entryDx=0;entryDy=0;" parent="WIyWlLk6GJQsqaUBKTNV-1" source="VhTY_aMwYe6NqTjl9KjU-50" target="ucVGV_VNWv9GXHvt-POz-32" edge="1">
          <mxGeometry width="100" relative="1" as="geometry">
            <mxPoint x="1030" y="770" as="sourcePoint" />
            <mxPoint x="1190" y="930" as="targetPoint" />
            <Array as="points" />
          </mxGeometry>
        </mxCell>
        <mxCell id="VhTY_aMwYe6NqTjl9KjU-53" value="RICEVE" style="rhombus;whiteSpace=wrap;html=1;" parent="WIyWlLk6GJQsqaUBKTNV-1" vertex="1">
          <mxGeometry x="1080" y="636" width="80" height="80" as="geometry" />
        </mxCell>
        <mxCell id="VhTY_aMwYe6NqTjl9KjU-55" value="" style="edgeStyle=none;orthogonalLoop=1;jettySize=auto;html=1;endArrow=classic;startArrow=classic;endSize=8;startSize=8;rounded=0;exitX=0.5;exitY=0;exitDx=0;exitDy=0;entryX=0.5;entryY=1;entryDx=0;entryDy=0;" parent="WIyWlLk6GJQsqaUBKTNV-1" source="ucVGV_VNWv9GXHvt-POz-32" target="VhTY_aMwYe6NqTjl9KjU-53" edge="1">
          <mxGeometry width="100" relative="1" as="geometry">
            <mxPoint x="1170" y="906" as="sourcePoint" />
            <mxPoint x="1120" y="746" as="targetPoint" />
            <Array as="points" />
          </mxGeometry>
        </mxCell>
        <mxCell id="VhTY_aMwYe6NqTjl9KjU-56" value="" style="edgeStyle=none;orthogonalLoop=1;jettySize=auto;html=1;endArrow=classic;startArrow=classic;endSize=8;startSize=8;rounded=0;exitX=0.5;exitY=0;exitDx=0;exitDy=0;entryX=0;entryY=1;entryDx=0;entryDy=0;" parent="WIyWlLk6GJQsqaUBKTNV-1" source="VhTY_aMwYe6NqTjl9KjU-53" target="ucVGV_VNWv9GXHvt-POz-4" edge="1">
          <mxGeometry width="100" relative="1" as="geometry">
            <mxPoint x="1130" y="660" as="sourcePoint" />
            <mxPoint x="1310" y="920" as="targetPoint" />
            <Array as="points" />
          </mxGeometry>
        </mxCell>
        <mxCell id="VhTY_aMwYe6NqTjl9KjU-58" value="RICEVE" style="rhombus;whiteSpace=wrap;html=1;" parent="WIyWlLk6GJQsqaUBKTNV-1" vertex="1">
          <mxGeometry x="1221" y="350" width="80" height="80" as="geometry" />
        </mxCell>
        <mxCell id="VhTY_aMwYe6NqTjl9KjU-59" value="FA" style="rhombus;whiteSpace=wrap;html=1;" parent="WIyWlLk6GJQsqaUBKTNV-1" vertex="1">
          <mxGeometry x="920" y="310" width="80" height="80" as="geometry" />
        </mxCell>
        <mxCell id="VhTY_aMwYe6NqTjl9KjU-60" value="" style="edgeStyle=none;orthogonalLoop=1;jettySize=auto;html=1;endArrow=classic;startArrow=classic;endSize=8;startSize=8;rounded=0;entryX=0.5;entryY=0;entryDx=0;entryDy=0;exitX=1;exitY=0.5;exitDx=0;exitDy=0;" parent="WIyWlLk6GJQsqaUBKTNV-1" source="ucVGV_VNWv9GXHvt-POz-38" target="VhTY_aMwYe6NqTjl9KjU-58" edge="1">
          <mxGeometry width="100" relative="1" as="geometry">
            <mxPoint x="1170" y="360" as="sourcePoint" />
            <mxPoint x="1270" y="360" as="targetPoint" />
            <Array as="points" />
          </mxGeometry>
        </mxCell>
        <mxCell id="VhTY_aMwYe6NqTjl9KjU-61" value="" style="edgeStyle=none;orthogonalLoop=1;jettySize=auto;html=1;endArrow=classic;startArrow=classic;endSize=8;startSize=8;rounded=0;entryX=0.5;entryY=1;entryDx=0;entryDy=0;exitX=0.5;exitY=0;exitDx=0;exitDy=0;" parent="WIyWlLk6GJQsqaUBKTNV-1" source="ucVGV_VNWv9GXHvt-POz-4" target="VhTY_aMwYe6NqTjl9KjU-58" edge="1">
          <mxGeometry width="100" relative="1" as="geometry">
            <mxPoint x="1130" y="430" as="sourcePoint" />
            <mxPoint x="1281" y="430" as="targetPoint" />
            <Array as="points" />
          </mxGeometry>
        </mxCell>
        <mxCell id="VhTY_aMwYe6NqTjl9KjU-62" value="" style="edgeStyle=none;orthogonalLoop=1;jettySize=auto;html=1;endArrow=classic;startArrow=classic;endSize=8;startSize=8;rounded=0;entryX=0;entryY=0.5;entryDx=0;entryDy=0;exitX=1;exitY=0.75;exitDx=0;exitDy=0;" parent="WIyWlLk6GJQsqaUBKTNV-1" source="ucVGV_VNWv9GXHvt-POz-1" target="VhTY_aMwYe6NqTjl9KjU-59" edge="1">
          <mxGeometry width="100" relative="1" as="geometry">
            <mxPoint x="860" y="390" as="sourcePoint" />
            <mxPoint x="960" y="390" as="targetPoint" />
            <Array as="points" />
          </mxGeometry>
        </mxCell>
        <mxCell id="VhTY_aMwYe6NqTjl9KjU-63" value="" style="edgeStyle=none;orthogonalLoop=1;jettySize=auto;html=1;endArrow=classic;startArrow=classic;endSize=8;startSize=8;rounded=0;entryX=0;entryY=0.5;entryDx=0;entryDy=0;exitX=1;exitY=0.5;exitDx=0;exitDy=0;" parent="WIyWlLk6GJQsqaUBKTNV-1" source="VhTY_aMwYe6NqTjl9KjU-59" target="ucVGV_VNWv9GXHvt-POz-38" edge="1">
          <mxGeometry width="100" relative="1" as="geometry">
            <mxPoint x="960" y="430" as="sourcePoint" />
            <mxPoint x="1060" y="430" as="targetPoint" />
            <Array as="points" />
          </mxGeometry>
        </mxCell>
        <mxCell id="enGjOXmPhfM7SJzy2GJr-9" value="" style="endArrow=none;html=1;rounded=0;entryX=0.49;entryY=0.967;entryDx=0;entryDy=0;entryPerimeter=0;" parent="WIyWlLk6GJQsqaUBKTNV-1" edge="1" target="dA3KQazC7g9zLnKCbOtr-1" source="dA3KQazC7g9zLnKCbOtr-0">
          <mxGeometry width="50" height="50" relative="1" as="geometry">
            <mxPoint x="720" y="140" as="sourcePoint" />
            <mxPoint x="660" y="120" as="targetPoint" />
          </mxGeometry>
        </mxCell>
        <mxCell id="dA3KQazC7g9zLnKCbOtr-1" value="id_Account" style="text;html=1;align=center;verticalAlign=middle;resizable=0;points=[];autosize=1;strokeColor=none;fillColor=none;fontSize=16;" vertex="1" parent="WIyWlLk6GJQsqaUBKTNV-1">
          <mxGeometry x="580" y="68" width="100" height="30" as="geometry" />
        </mxCell>
        <mxCell id="dA3KQazC7g9zLnKCbOtr-2" value="" style="endArrow=none;html=1;rounded=0;entryX=0.5;entryY=1;entryDx=0;entryDy=0;entryPerimeter=0;" edge="1" parent="WIyWlLk6GJQsqaUBKTNV-1" target="dA3KQazC7g9zLnKCbOtr-3">
          <mxGeometry width="50" height="50" relative="1" as="geometry">
            <mxPoint x="740" y="140" as="sourcePoint" />
            <mxPoint x="700" y="100" as="targetPoint" />
          </mxGeometry>
        </mxCell>
        <mxCell id="dA3KQazC7g9zLnKCbOtr-3" value="handle" style="text;html=1;align=center;verticalAlign=middle;resizable=0;points=[];autosize=1;strokeColor=none;fillColor=none;fontSize=16;" vertex="1" parent="WIyWlLk6GJQsqaUBKTNV-1">
          <mxGeometry x="650" y="85" width="70" height="30" as="geometry" />
        </mxCell>
        <mxCell id="dA3KQazC7g9zLnKCbOtr-4" value="mail" style="text;html=1;align=center;verticalAlign=middle;resizable=0;points=[];autosize=1;strokeColor=none;fillColor=none;fontSize=16;" vertex="1" parent="WIyWlLk6GJQsqaUBKTNV-1">
          <mxGeometry x="635" y="38" width="50" height="30" as="geometry" />
        </mxCell>
        <mxCell id="dA3KQazC7g9zLnKCbOtr-5" value="password" style="text;html=1;align=center;verticalAlign=middle;resizable=0;points=[];autosize=1;strokeColor=none;fillColor=none;fontSize=16;" vertex="1" parent="WIyWlLk6GJQsqaUBKTNV-1">
          <mxGeometry x="685" y="60" width="90" height="30" as="geometry" />
        </mxCell>
        <mxCell id="dA3KQazC7g9zLnKCbOtr-6" value="dataIscrizione" style="text;html=1;align=center;verticalAlign=middle;resizable=0;points=[];autosize=1;strokeColor=none;fillColor=none;fontSize=16;" vertex="1" parent="WIyWlLk6GJQsqaUBKTNV-1">
          <mxGeometry x="770" y="18" width="120" height="30" as="geometry" />
        </mxCell>
        <mxCell id="dA3KQazC7g9zLnKCbOtr-7" value="imgProfilo" style="text;html=1;align=center;verticalAlign=middle;resizable=0;points=[];autosize=1;strokeColor=none;fillColor=none;fontSize=16;" vertex="1" parent="WIyWlLk6GJQsqaUBKTNV-1">
          <mxGeometry x="520" y="80" width="90" height="30" as="geometry" />
        </mxCell>
        <mxCell id="dA3KQazC7g9zLnKCbOtr-8" value="nome_Utente" style="text;html=1;align=center;verticalAlign=middle;resizable=0;points=[];autosize=1;strokeColor=none;fillColor=none;fontSize=16;" vertex="1" parent="WIyWlLk6GJQsqaUBKTNV-1">
          <mxGeometry x="720" y="38" width="120" height="30" as="geometry" />
        </mxCell>
        <mxCell id="dA3KQazC7g9zLnKCbOtr-9" value="cognome_Utente" style="text;html=1;align=center;verticalAlign=middle;resizable=0;points=[];autosize=1;strokeColor=none;fillColor=none;fontSize=16;" vertex="1" parent="WIyWlLk6GJQsqaUBKTNV-1">
          <mxGeometry x="510" y="110" width="150" height="30" as="geometry" />
        </mxCell>
        <mxCell id="dA3KQazC7g9zLnKCbOtr-11" value="" style="endArrow=none;html=1;rounded=0;entryDx=0;entryDy=0;entryPerimeter=0;entryX=-0.15;entryY=0.45;" edge="1" parent="WIyWlLk6GJQsqaUBKTNV-1" target="dA3KQazC7g9zLnKCbOtr-0">
          <mxGeometry width="50" height="50" relative="1" as="geometry">
            <mxPoint x="720" y="140" as="sourcePoint" />
            <mxPoint x="614" y="119" as="targetPoint" />
          </mxGeometry>
        </mxCell>
        <mxCell id="dA3KQazC7g9zLnKCbOtr-0" value="" style="shape=waypoint;sketch=0;size=6;pointerEvents=1;points=[];fillColor=none;resizable=0;rotatable=0;perimeter=centerPerimeter;snapToPoint=1;fontSize=16;" vertex="1" parent="WIyWlLk6GJQsqaUBKTNV-1">
          <mxGeometry x="620" y="90" width="20" height="20" as="geometry" />
        </mxCell>
        <mxCell id="dA3KQazC7g9zLnKCbOtr-12" value="compleanno" style="text;html=1;align=center;verticalAlign=middle;resizable=0;points=[];autosize=1;strokeColor=none;fillColor=none;fontSize=16;" vertex="1" parent="WIyWlLk6GJQsqaUBKTNV-1">
          <mxGeometry x="822" y="48" width="110" height="30" as="geometry" />
        </mxCell>
        <mxCell id="dA3KQazC7g9zLnKCbOtr-14" value="genere" style="text;html=1;align=center;verticalAlign=middle;resizable=0;points=[];autosize=1;strokeColor=none;fillColor=none;fontSize=16;" vertex="1" parent="WIyWlLk6GJQsqaUBKTNV-1">
          <mxGeometry x="852" y="73" width="70" height="30" as="geometry" />
        </mxCell>
        <mxCell id="dA3KQazC7g9zLnKCbOtr-15" value="paese" style="text;html=1;align=center;verticalAlign=middle;resizable=0;points=[];autosize=1;strokeColor=none;fillColor=none;fontSize=16;" vertex="1" parent="WIyWlLk6GJQsqaUBKTNV-1">
          <mxGeometry x="910" y="98" width="70" height="30" as="geometry" />
        </mxCell>
        <mxCell id="dA3KQazC7g9zLnKCbOtr-16" value="StatoAccount" style="text;html=1;align=center;verticalAlign=middle;resizable=0;points=[];autosize=1;strokeColor=none;fillColor=none;fontSize=16;" vertex="1" parent="WIyWlLk6GJQsqaUBKTNV-1">
          <mxGeometry x="915" y="68" width="120" height="30" as="geometry" />
        </mxCell>
        <mxCell id="dA3KQazC7g9zLnKCbOtr-17" value="" style="endArrow=none;html=1;rounded=0;entryX=-0.027;entryY=0.729;entryDx=0;entryDy=0;entryPerimeter=0;exitX=1;exitY=0;exitDx=0;exitDy=0;" edge="1" parent="WIyWlLk6GJQsqaUBKTNV-1" source="ucVGV_VNWv9GXHvt-POz-1" target="dA3KQazC7g9zLnKCbOtr-15">
          <mxGeometry width="50" height="50" relative="1" as="geometry">
            <mxPoint x="810" y="140" as="sourcePoint" />
            <mxPoint x="770" y="100" as="targetPoint" />
          </mxGeometry>
        </mxCell>
        <mxCell id="dA3KQazC7g9zLnKCbOtr-18" value="" style="endArrow=none;html=1;rounded=0;entryX=0.55;entryY=1.033;entryDx=0;entryDy=0;entryPerimeter=0;" edge="1" parent="WIyWlLk6GJQsqaUBKTNV-1" target="dA3KQazC7g9zLnKCbOtr-6">
          <mxGeometry width="50" height="50" relative="1" as="geometry">
            <mxPoint x="780" y="140" as="sourcePoint" />
            <mxPoint x="740" y="100" as="targetPoint" />
          </mxGeometry>
        </mxCell>
        <mxCell id="dA3KQazC7g9zLnKCbOtr-19" value="" style="endArrow=none;html=1;rounded=0;exitX=0.35;exitY=0;exitDx=0;exitDy=0;exitPerimeter=0;" edge="1" parent="WIyWlLk6GJQsqaUBKTNV-1" source="ucVGV_VNWv9GXHvt-POz-1" target="dA3KQazC7g9zLnKCbOtr-5">
          <mxGeometry width="50" height="50" relative="1" as="geometry">
            <mxPoint x="770" y="138" as="sourcePoint" />
            <mxPoint x="730" y="98" as="targetPoint" />
          </mxGeometry>
        </mxCell>
        <mxCell id="dA3KQazC7g9zLnKCbOtr-20" value="" style="endArrow=none;html=1;rounded=0;" edge="1" parent="WIyWlLk6GJQsqaUBKTNV-1" target="dA3KQazC7g9zLnKCbOtr-14">
          <mxGeometry width="50" height="50" relative="1" as="geometry">
            <mxPoint x="800" y="138" as="sourcePoint" />
            <mxPoint x="760" y="98" as="targetPoint" />
          </mxGeometry>
        </mxCell>
        <mxCell id="dA3KQazC7g9zLnKCbOtr-21" value="" style="endArrow=none;html=1;rounded=0;exitX=0.25;exitY=0;exitDx=0;exitDy=0;" edge="1" parent="WIyWlLk6GJQsqaUBKTNV-1" source="ucVGV_VNWv9GXHvt-POz-1" target="dA3KQazC7g9zLnKCbOtr-4">
          <mxGeometry width="50" height="50" relative="1" as="geometry">
            <mxPoint x="755" y="138" as="sourcePoint" />
            <mxPoint x="715" y="98" as="targetPoint" />
            <Array as="points" />
          </mxGeometry>
        </mxCell>
        <mxCell id="dA3KQazC7g9zLnKCbOtr-22" value="" style="endArrow=none;html=1;rounded=0;entryX=0.56;entryY=1;entryDx=0;entryDy=0;entryPerimeter=0;" edge="1" parent="WIyWlLk6GJQsqaUBKTNV-1" target="dA3KQazC7g9zLnKCbOtr-9">
          <mxGeometry width="50" height="50" relative="1" as="geometry">
            <mxPoint x="720" y="160" as="sourcePoint" />
            <mxPoint x="680" y="120" as="targetPoint" />
          </mxGeometry>
        </mxCell>
        <mxCell id="dA3KQazC7g9zLnKCbOtr-23" value="" style="endArrow=none;html=1;rounded=0;" edge="1" parent="WIyWlLk6GJQsqaUBKTNV-1" target="dA3KQazC7g9zLnKCbOtr-7">
          <mxGeometry width="50" height="50" relative="1" as="geometry">
            <mxPoint x="720" y="150" as="sourcePoint" />
            <mxPoint x="680" y="110" as="targetPoint" />
          </mxGeometry>
        </mxCell>
        <mxCell id="dA3KQazC7g9zLnKCbOtr-24" value="" style="endArrow=none;html=1;rounded=0;exitX=0.75;exitY=0;exitDx=0;exitDy=0;" edge="1" parent="WIyWlLk6GJQsqaUBKTNV-1" source="ucVGV_VNWv9GXHvt-POz-1" target="dA3KQazC7g9zLnKCbOtr-16">
          <mxGeometry width="50" height="50" relative="1" as="geometry">
            <mxPoint x="795" y="140" as="sourcePoint" />
            <mxPoint x="755" y="100" as="targetPoint" />
          </mxGeometry>
        </mxCell>
        <mxCell id="dA3KQazC7g9zLnKCbOtr-26" value="" style="endArrow=none;html=1;rounded=0;" edge="1" parent="WIyWlLk6GJQsqaUBKTNV-1" target="dA3KQazC7g9zLnKCbOtr-12">
          <mxGeometry width="50" height="50" relative="1" as="geometry">
            <mxPoint x="790" y="138" as="sourcePoint" />
            <mxPoint x="750" y="98" as="targetPoint" />
          </mxGeometry>
        </mxCell>
        <mxCell id="dA3KQazC7g9zLnKCbOtr-27" value="" style="endArrow=none;html=1;rounded=0;exitX=0.433;exitY=0.017;exitDx=0;exitDy=0;exitPerimeter=0;entryX=0.508;entryY=0.967;entryDx=0;entryDy=0;entryPerimeter=0;" edge="1" parent="WIyWlLk6GJQsqaUBKTNV-1" source="ucVGV_VNWv9GXHvt-POz-1" target="dA3KQazC7g9zLnKCbOtr-8">
          <mxGeometry width="50" height="50" relative="1" as="geometry">
            <mxPoint x="780" y="100" as="sourcePoint" />
            <mxPoint x="760" y="80" as="targetPoint" />
          </mxGeometry>
        </mxCell>
        <mxCell id="dA3KQazC7g9zLnKCbOtr-28" value="id_Video" style="text;html=1;align=center;verticalAlign=middle;resizable=0;points=[];autosize=1;strokeColor=none;fillColor=none;fontSize=16;" vertex="1" parent="WIyWlLk6GJQsqaUBKTNV-1">
          <mxGeometry x="1090" y="440" width="90" height="30" as="geometry" />
        </mxCell>
        <mxCell id="dA3KQazC7g9zLnKCbOtr-29" value="titolo" style="text;html=1;align=center;verticalAlign=middle;resizable=0;points=[];autosize=1;strokeColor=none;fillColor=none;fontSize=16;" vertex="1" parent="WIyWlLk6GJQsqaUBKTNV-1">
          <mxGeometry x="1361" y="440" width="60" height="30" as="geometry" />
        </mxCell>
        <mxCell id="dA3KQazC7g9zLnKCbOtr-30" value="descrizione" style="text;html=1;align=center;verticalAlign=middle;resizable=0;points=[];autosize=1;strokeColor=none;fillColor=none;fontSize=16;" vertex="1" parent="WIyWlLk6GJQsqaUBKTNV-1">
          <mxGeometry x="1130" y="420" width="100" height="30" as="geometry" />
        </mxCell>
        <mxCell id="dA3KQazC7g9zLnKCbOtr-31" value="dataPubblicazione" style="text;html=1;align=center;verticalAlign=middle;resizable=0;points=[];autosize=1;strokeColor=none;fillColor=none;fontSize=16;" vertex="1" parent="WIyWlLk6GJQsqaUBKTNV-1">
          <mxGeometry x="1390" y="585" width="150" height="30" as="geometry" />
        </mxCell>
        <mxCell id="dA3KQazC7g9zLnKCbOtr-32" value="durata" style="text;html=1;align=center;verticalAlign=middle;resizable=0;points=[];autosize=1;strokeColor=none;fillColor=none;fontSize=16;" vertex="1" parent="WIyWlLk6GJQsqaUBKTNV-1">
          <mxGeometry x="1380" y="490" width="70" height="30" as="geometry" />
        </mxCell>
        <mxCell id="dA3KQazC7g9zLnKCbOtr-33" value="costo" style="text;html=1;align=center;verticalAlign=middle;resizable=0;points=[];autosize=1;strokeColor=none;fillColor=none;fontSize=16;" vertex="1" parent="WIyWlLk6GJQsqaUBKTNV-1">
          <mxGeometry x="1390" y="540" width="60" height="30" as="geometry" />
        </mxCell>
        <mxCell id="dA3KQazC7g9zLnKCbOtr-34" value="categoria" style="text;html=1;align=center;verticalAlign=middle;resizable=0;points=[];autosize=1;strokeColor=none;fillColor=none;fontSize=16;" vertex="1" parent="WIyWlLk6GJQsqaUBKTNV-1">
          <mxGeometry x="1310" y="575" width="90" height="30" as="geometry" />
        </mxCell>
        <mxCell id="dA3KQazC7g9zLnKCbOtr-35" value="visibilità" style="text;html=1;align=center;verticalAlign=middle;resizable=0;points=[];autosize=1;strokeColor=none;fillColor=none;fontSize=16;" vertex="1" parent="WIyWlLk6GJQsqaUBKTNV-1">
          <mxGeometry x="1190" y="440" width="80" height="30" as="geometry" />
        </mxCell>
        <mxCell id="dA3KQazC7g9zLnKCbOtr-36" value="stato" style="text;html=1;align=center;verticalAlign=middle;resizable=0;points=[];autosize=1;strokeColor=none;fillColor=none;fontSize=16;" vertex="1" parent="WIyWlLk6GJQsqaUBKTNV-1">
          <mxGeometry x="1390" y="460" width="60" height="30" as="geometry" />
        </mxCell>
        <mxCell id="dA3KQazC7g9zLnKCbOtr-37" value="id_Account" style="text;html=1;align=center;verticalAlign=middle;resizable=0;points=[];autosize=1;strokeColor=none;fillColor=none;fontSize=16;" vertex="1" parent="WIyWlLk6GJQsqaUBKTNV-1">
          <mxGeometry x="1040" y="490" width="100" height="30" as="geometry" />
        </mxCell>
        <mxCell id="dA3KQazC7g9zLnKCbOtr-38" value="isLive" style="text;html=1;align=center;verticalAlign=middle;resizable=0;points=[];autosize=1;strokeColor=none;fillColor=none;fontSize=16;" vertex="1" parent="WIyWlLk6GJQsqaUBKTNV-1">
          <mxGeometry x="1250" y="686" width="60" height="30" as="geometry" />
        </mxCell>
        <mxCell id="dA3KQazC7g9zLnKCbOtr-39" value="dataFine" style="text;html=1;align=center;verticalAlign=middle;resizable=0;points=[];autosize=1;strokeColor=none;fillColor=none;fontSize=16;" vertex="1" parent="WIyWlLk6GJQsqaUBKTNV-1">
          <mxGeometry x="1170" y="688" width="90" height="30" as="geometry" />
        </mxCell>
        <mxCell id="dA3KQazC7g9zLnKCbOtr-40" value="thumbnail" style="text;html=1;align=center;verticalAlign=middle;resizable=0;points=[];autosize=1;strokeColor=none;fillColor=none;fontSize=16;" vertex="1" parent="WIyWlLk6GJQsqaUBKTNV-1">
          <mxGeometry x="1260" y="440" width="90" height="30" as="geometry" />
        </mxCell>
        <mxCell id="dA3KQazC7g9zLnKCbOtr-42" value="" style="endArrow=none;html=1;rounded=0;exitX=0.478;exitY=0.033;exitDx=0;exitDy=0;exitPerimeter=0;entryX=0.125;entryY=1.05;entryDx=0;entryDy=0;entryPerimeter=0;" edge="1" parent="WIyWlLk6GJQsqaUBKTNV-1" source="dA3KQazC7g9zLnKCbOtr-39" target="ucVGV_VNWv9GXHvt-POz-12">
          <mxGeometry width="50" height="50" relative="1" as="geometry">
            <mxPoint x="1234" y="734" as="sourcePoint" />
            <mxPoint x="1230" y="660" as="targetPoint" />
          </mxGeometry>
        </mxCell>
        <mxCell id="dA3KQazC7g9zLnKCbOtr-43" value="" style="endArrow=none;html=1;rounded=0;entryX=1;entryY=0.25;entryDx=0;entryDy=0;" edge="1" parent="WIyWlLk6GJQsqaUBKTNV-1" source="dA3KQazC7g9zLnKCbOtr-32" target="ucVGV_VNWv9GXHvt-POz-4">
          <mxGeometry width="50" height="50" relative="1" as="geometry">
            <mxPoint x="1382" y="934" as="sourcePoint" />
            <mxPoint x="1378" y="860" as="targetPoint" />
          </mxGeometry>
        </mxCell>
        <mxCell id="dA3KQazC7g9zLnKCbOtr-44" value="" style="endArrow=none;html=1;rounded=0;entryX=0.5;entryY=1;entryDx=0;entryDy=0;" edge="1" parent="WIyWlLk6GJQsqaUBKTNV-1" source="dA3KQazC7g9zLnKCbOtr-38" target="ucVGV_VNWv9GXHvt-POz-12">
          <mxGeometry width="50" height="50" relative="1" as="geometry">
            <mxPoint x="1392" y="944" as="sourcePoint" />
            <mxPoint x="1388" y="870" as="targetPoint" />
          </mxGeometry>
        </mxCell>
        <mxCell id="dA3KQazC7g9zLnKCbOtr-45" value="" style="endArrow=none;html=1;rounded=0;entryX=1;entryY=1;entryDx=0;entryDy=0;" edge="1" parent="WIyWlLk6GJQsqaUBKTNV-1" source="dA3KQazC7g9zLnKCbOtr-34" target="ucVGV_VNWv9GXHvt-POz-4">
          <mxGeometry width="50" height="50" relative="1" as="geometry">
            <mxPoint x="1383" y="924" as="sourcePoint" />
            <mxPoint x="1379" y="850" as="targetPoint" />
          </mxGeometry>
        </mxCell>
        <mxCell id="dA3KQazC7g9zLnKCbOtr-47" value="" style="endArrow=none;html=1;rounded=0;exitX=0;exitY=0.25;exitDx=0;exitDy=0;entryX=1.02;entryY=0.533;entryDx=0;entryDy=0;entryPerimeter=0;" edge="1" parent="WIyWlLk6GJQsqaUBKTNV-1" source="ucVGV_VNWv9GXHvt-POz-4" target="dA3KQazC7g9zLnKCbOtr-37">
          <mxGeometry width="50" height="50" relative="1" as="geometry">
            <mxPoint x="1402" y="954" as="sourcePoint" />
            <mxPoint x="1398" y="880" as="targetPoint" />
          </mxGeometry>
        </mxCell>
        <mxCell id="dA3KQazC7g9zLnKCbOtr-48" value="" style="endArrow=none;html=1;rounded=0;" edge="1" parent="WIyWlLk6GJQsqaUBKTNV-1">
          <mxGeometry width="50" height="50" relative="1" as="geometry">
            <mxPoint x="1170" y="530" as="sourcePoint" />
            <mxPoint x="1160" y="480" as="targetPoint" />
          </mxGeometry>
        </mxCell>
        <mxCell id="dA3KQazC7g9zLnKCbOtr-49" value="" style="endArrow=none;html=1;rounded=0;exitDx=0;exitDy=0;exitPerimeter=0;entryX=0.522;entryY=1;entryDx=0;entryDy=0;entryPerimeter=0;" edge="1" parent="WIyWlLk6GJQsqaUBKTNV-1" source="dA3KQazC7g9zLnKCbOtr-59" target="dA3KQazC7g9zLnKCbOtr-28">
          <mxGeometry width="50" height="50" relative="1" as="geometry">
            <mxPoint x="1422" y="974" as="sourcePoint" />
            <mxPoint x="1418" y="900" as="targetPoint" />
          </mxGeometry>
        </mxCell>
        <mxCell id="dA3KQazC7g9zLnKCbOtr-50" value="" style="endArrow=none;html=1;rounded=0;exitX=0.25;exitY=0;exitDx=0;exitDy=0;entryX=0.475;entryY=1.033;entryDx=0;entryDy=0;entryPerimeter=0;" edge="1" parent="WIyWlLk6GJQsqaUBKTNV-1" source="ucVGV_VNWv9GXHvt-POz-4" target="dA3KQazC7g9zLnKCbOtr-35">
          <mxGeometry width="50" height="50" relative="1" as="geometry">
            <mxPoint x="1230" y="490" as="sourcePoint" />
            <mxPoint x="1230" y="470" as="targetPoint" />
          </mxGeometry>
        </mxCell>
        <mxCell id="dA3KQazC7g9zLnKCbOtr-53" value="" style="endArrow=none;html=1;rounded=0;exitX=0.75;exitY=0;exitDx=0;exitDy=0;entryX=0.478;entryY=1.067;entryDx=0;entryDy=0;entryPerimeter=0;" edge="1" parent="WIyWlLk6GJQsqaUBKTNV-1" source="ucVGV_VNWv9GXHvt-POz-4" target="dA3KQazC7g9zLnKCbOtr-40">
          <mxGeometry width="50" height="50" relative="1" as="geometry">
            <mxPoint x="1442" y="994" as="sourcePoint" />
            <mxPoint x="1438" y="920" as="targetPoint" />
          </mxGeometry>
        </mxCell>
        <mxCell id="dA3KQazC7g9zLnKCbOtr-54" value="" style="endArrow=none;html=1;rounded=0;exitX=0.133;exitY=0.033;exitDx=0;exitDy=0;exitPerimeter=0;entryX=1;entryY=0.75;entryDx=0;entryDy=0;" edge="1" parent="WIyWlLk6GJQsqaUBKTNV-1" source="dA3KQazC7g9zLnKCbOtr-31" target="ucVGV_VNWv9GXHvt-POz-4">
          <mxGeometry width="50" height="50" relative="1" as="geometry">
            <mxPoint x="1452" y="1004" as="sourcePoint" />
            <mxPoint x="1448" y="930" as="targetPoint" />
          </mxGeometry>
        </mxCell>
        <mxCell id="dA3KQazC7g9zLnKCbOtr-55" value="" style="endArrow=none;html=1;rounded=0;entryX=0.992;entryY=0.133;entryDx=0;entryDy=0;entryPerimeter=0;" edge="1" parent="WIyWlLk6GJQsqaUBKTNV-1" source="dA3KQazC7g9zLnKCbOtr-36" target="ucVGV_VNWv9GXHvt-POz-4">
          <mxGeometry width="50" height="50" relative="1" as="geometry">
            <mxPoint x="1462" y="1014" as="sourcePoint" />
            <mxPoint x="1458" y="940" as="targetPoint" />
          </mxGeometry>
        </mxCell>
        <mxCell id="dA3KQazC7g9zLnKCbOtr-56" value="" style="endArrow=none;html=1;rounded=0;exitX=0.158;exitY=0;exitDx=0;exitDy=0;exitPerimeter=0;" edge="1" parent="WIyWlLk6GJQsqaUBKTNV-1" source="ucVGV_VNWv9GXHvt-POz-4" target="dA3KQazC7g9zLnKCbOtr-30">
          <mxGeometry width="50" height="50" relative="1" as="geometry">
            <mxPoint x="1210" y="488" as="sourcePoint" />
            <mxPoint x="1468" y="950" as="targetPoint" />
          </mxGeometry>
        </mxCell>
        <mxCell id="dA3KQazC7g9zLnKCbOtr-57" value="" style="endArrow=none;html=1;rounded=0;entryX=1.008;entryY=0.65;entryDx=0;entryDy=0;entryPerimeter=0;" edge="1" parent="WIyWlLk6GJQsqaUBKTNV-1" source="dA3KQazC7g9zLnKCbOtr-33" target="ucVGV_VNWv9GXHvt-POz-4">
          <mxGeometry width="50" height="50" relative="1" as="geometry">
            <mxPoint x="1482" y="1034" as="sourcePoint" />
            <mxPoint x="1478" y="960" as="targetPoint" />
          </mxGeometry>
        </mxCell>
        <mxCell id="dA3KQazC7g9zLnKCbOtr-58" value="" style="endArrow=none;html=1;rounded=0;exitX=1;exitY=0;exitDx=0;exitDy=0;" edge="1" parent="WIyWlLk6GJQsqaUBKTNV-1" source="ucVGV_VNWv9GXHvt-POz-4" target="dA3KQazC7g9zLnKCbOtr-29">
          <mxGeometry width="50" height="50" relative="1" as="geometry">
            <mxPoint x="1492" y="1044" as="sourcePoint" />
            <mxPoint x="1488" y="970" as="targetPoint" />
          </mxGeometry>
        </mxCell>
        <mxCell id="dA3KQazC7g9zLnKCbOtr-60" value="" style="endArrow=none;html=1;rounded=0;exitX=0.075;exitY=0.017;exitDx=0;exitDy=0;exitPerimeter=0;entryDx=0;entryDy=0;entryPerimeter=0;" edge="1" parent="WIyWlLk6GJQsqaUBKTNV-1" source="ucVGV_VNWv9GXHvt-POz-4" target="dA3KQazC7g9zLnKCbOtr-59">
          <mxGeometry width="50" height="50" relative="1" as="geometry">
            <mxPoint x="1210" y="501" as="sourcePoint" />
            <mxPoint x="1158" y="470" as="targetPoint" />
          </mxGeometry>
        </mxCell>
        <mxCell id="dA3KQazC7g9zLnKCbOtr-59" value="" style="shape=waypoint;sketch=0;size=6;pointerEvents=1;points=[];fillColor=none;resizable=0;rotatable=0;perimeter=centerPerimeter;snapToPoint=1;fontSize=16;" vertex="1" parent="WIyWlLk6GJQsqaUBKTNV-1">
          <mxGeometry x="1146" y="460" width="20" height="20" as="geometry" />
        </mxCell>
        <mxCell id="dA3KQazC7g9zLnKCbOtr-61" value="canale" style="text;html=1;align=center;verticalAlign=middle;resizable=0;points=[];autosize=1;strokeColor=none;fillColor=none;fontSize=16;" vertex="1" parent="WIyWlLk6GJQsqaUBKTNV-1">
          <mxGeometry x="270" y="215" width="70" height="30" as="geometry" />
        </mxCell>
        <mxCell id="dA3KQazC7g9zLnKCbOtr-62" value="iscritto" style="text;html=1;align=center;verticalAlign=middle;resizable=0;points=[];autosize=1;strokeColor=none;fillColor=none;fontSize=16;" vertex="1" parent="WIyWlLk6GJQsqaUBKTNV-1">
          <mxGeometry x="280" y="80" width="70" height="30" as="geometry" />
        </mxCell>
        <mxCell id="dA3KQazC7g9zLnKCbOtr-64" value="livello" style="text;html=1;align=center;verticalAlign=middle;resizable=0;points=[];autosize=1;strokeColor=none;fillColor=none;fontSize=16;" vertex="1" parent="WIyWlLk6GJQsqaUBKTNV-1">
          <mxGeometry x="80" y="335" width="60" height="30" as="geometry" />
        </mxCell>
        <mxCell id="dA3KQazC7g9zLnKCbOtr-65" value="dataIscrizione" style="text;html=1;align=center;verticalAlign=middle;resizable=0;points=[];autosize=1;strokeColor=none;fillColor=none;fontSize=16;" vertex="1" parent="WIyWlLk6GJQsqaUBKTNV-1">
          <mxGeometry x="50" y="60" width="120" height="30" as="geometry" />
        </mxCell>
        <mxCell id="dA3KQazC7g9zLnKCbOtr-67" value="" style="endArrow=none;html=1;rounded=0;entryX=0.443;entryY=1.043;entryDx=0;entryDy=0;entryPerimeter=0;exitX=0;exitY=0;exitDx=0;exitDy=0;" edge="1" parent="WIyWlLk6GJQsqaUBKTNV-1" source="VhTY_aMwYe6NqTjl9KjU-15" target="dA3KQazC7g9zLnKCbOtr-65">
          <mxGeometry width="50" height="50" relative="1" as="geometry">
            <mxPoint x="80" y="268.57142857142856" as="sourcePoint" />
            <mxPoint x="1508" y="990" as="targetPoint" />
          </mxGeometry>
        </mxCell>
        <mxCell id="dA3KQazC7g9zLnKCbOtr-68" value="" style="endArrow=none;html=1;rounded=0;entryX=0;entryY=1;entryDx=0;entryDy=0;" edge="1" parent="WIyWlLk6GJQsqaUBKTNV-1" source="dA3KQazC7g9zLnKCbOtr-64" target="VhTY_aMwYe6NqTjl9KjU-16">
          <mxGeometry width="50" height="50" relative="1" as="geometry">
            <mxPoint x="137" y="359" as="sourcePoint" />
            <mxPoint x="130" y="310" as="targetPoint" />
          </mxGeometry>
        </mxCell>
        <mxCell id="dA3KQazC7g9zLnKCbOtr-69" value="" style="endArrow=none;html=1;rounded=0;exitX=0.75;exitY=0;exitDx=0;exitDy=0;" edge="1" parent="WIyWlLk6GJQsqaUBKTNV-1" source="VhTY_aMwYe6NqTjl9KjU-15" target="dA3KQazC7g9zLnKCbOtr-62">
          <mxGeometry width="50" height="50" relative="1" as="geometry">
            <mxPoint x="130" y="160" as="sourcePoint" />
            <mxPoint x="123" y="111" as="targetPoint" />
          </mxGeometry>
        </mxCell>
        <mxCell id="dA3KQazC7g9zLnKCbOtr-70" value="" style="endArrow=none;html=1;rounded=0;" edge="1" parent="WIyWlLk6GJQsqaUBKTNV-1">
          <mxGeometry width="50" height="50" relative="1" as="geometry">
            <mxPoint x="200" y="200" as="sourcePoint" />
            <mxPoint x="270" y="234" as="targetPoint" />
          </mxGeometry>
        </mxCell>
        <mxCell id="dA3KQazC7g9zLnKCbOtr-71" value="" style="endArrow=none;html=1;rounded=0;" edge="1" parent="WIyWlLk6GJQsqaUBKTNV-1" source="dA3KQazC7g9zLnKCbOtr-72">
          <mxGeometry width="50" height="50" relative="1" as="geometry">
            <mxPoint x="253" y="240" as="sourcePoint" />
            <mxPoint x="250" y="90" as="targetPoint" />
          </mxGeometry>
        </mxCell>
        <mxCell id="dA3KQazC7g9zLnKCbOtr-73" value="" style="endArrow=none;html=1;rounded=0;" edge="1" parent="WIyWlLk6GJQsqaUBKTNV-1" target="dA3KQazC7g9zLnKCbOtr-72">
          <mxGeometry width="50" height="50" relative="1" as="geometry">
            <mxPoint x="253" y="240" as="sourcePoint" />
            <mxPoint x="250" y="90" as="targetPoint" />
          </mxGeometry>
        </mxCell>
        <mxCell id="dA3KQazC7g9zLnKCbOtr-72" value="" style="shape=waypoint;sketch=0;size=6;pointerEvents=1;points=[];fillColor=none;resizable=0;rotatable=0;perimeter=centerPerimeter;snapToPoint=1;fontSize=16;" vertex="1" parent="WIyWlLk6GJQsqaUBKTNV-1">
          <mxGeometry x="240" y="78" width="20" height="20" as="geometry" />
        </mxCell>
        <mxCell id="dA3KQazC7g9zLnKCbOtr-74" value="id_Video" style="text;html=1;align=center;verticalAlign=middle;resizable=0;points=[];autosize=1;strokeColor=none;fillColor=none;fontSize=16;" vertex="1" parent="WIyWlLk6GJQsqaUBKTNV-1">
          <mxGeometry x="1260" y="310" width="90" height="30" as="geometry" />
        </mxCell>
        <mxCell id="dA3KQazC7g9zLnKCbOtr-75" value="account" style="text;html=1;align=center;verticalAlign=middle;resizable=0;points=[];autosize=1;strokeColor=none;fillColor=none;fontSize=16;" vertex="1" parent="WIyWlLk6GJQsqaUBKTNV-1">
          <mxGeometry x="1180" y="250" width="80" height="30" as="geometry" />
        </mxCell>
        <mxCell id="dA3KQazC7g9zLnKCbOtr-76" value="dataView" style="text;html=1;align=center;verticalAlign=middle;resizable=0;points=[];autosize=1;strokeColor=none;fillColor=none;fontSize=16;" vertex="1" parent="WIyWlLk6GJQsqaUBKTNV-1">
          <mxGeometry x="1341" y="150" width="90" height="30" as="geometry" />
        </mxCell>
        <mxCell id="dA3KQazC7g9zLnKCbOtr-77" value="" style="endArrow=none;html=1;rounded=0;entryX=0.44;entryY=1.014;entryDx=0;entryDy=0;entryPerimeter=0;exitX=0.5;exitY=0;exitDx=0;exitDy=0;" edge="1" parent="WIyWlLk6GJQsqaUBKTNV-1" source="ucVGV_VNWv9GXHvt-POz-33" target="dA3KQazC7g9zLnKCbOtr-76">
          <mxGeometry width="50" height="50" relative="1" as="geometry">
            <mxPoint x="1407" y="124.5" as="sourcePoint" />
            <mxPoint x="1400" y="75.5" as="targetPoint" />
          </mxGeometry>
        </mxCell>
        <mxCell id="dA3KQazC7g9zLnKCbOtr-79" value="" style="endArrow=none;html=1;rounded=0;entryX=0;entryY=1;entryDx=0;entryDy=0;exitX=1.004;exitY=0.59;exitDx=0;exitDy=0;exitPerimeter=0;" edge="1" parent="WIyWlLk6GJQsqaUBKTNV-1" source="dA3KQazC7g9zLnKCbOtr-75" target="ucVGV_VNWv9GXHvt-POz-33">
          <mxGeometry width="50" height="50" relative="1" as="geometry">
            <mxPoint x="1391" y="210" as="sourcePoint" />
            <mxPoint x="1391" y="190" as="targetPoint" />
          </mxGeometry>
        </mxCell>
        <mxCell id="dA3KQazC7g9zLnKCbOtr-80" value="" style="endArrow=none;html=1;rounded=0;entryX=0.25;entryY=1;entryDx=0;entryDy=0;" edge="1" parent="WIyWlLk6GJQsqaUBKTNV-1" source="dA3KQazC7g9zLnKCbOtr-74" target="ucVGV_VNWv9GXHvt-POz-33">
          <mxGeometry width="50" height="50" relative="1" as="geometry">
            <mxPoint x="1401" y="220" as="sourcePoint" />
            <mxPoint x="1401" y="200" as="targetPoint" />
          </mxGeometry>
        </mxCell>
        <mxCell id="dA3KQazC7g9zLnKCbOtr-81" value="" style="endArrow=none;html=1;rounded=0;" edge="1" parent="WIyWlLk6GJQsqaUBKTNV-1">
          <mxGeometry width="50" height="50" relative="1" as="geometry">
            <mxPoint x="1320" y="280" as="sourcePoint" />
            <mxPoint x="1410" y="290" as="targetPoint" />
          </mxGeometry>
        </mxCell>
        <mxCell id="dA3KQazC7g9zLnKCbOtr-82" value="" style="endArrow=none;html=1;rounded=0;" edge="1" parent="WIyWlLk6GJQsqaUBKTNV-1">
          <mxGeometry width="50" height="50" relative="1" as="geometry">
            <mxPoint x="1310" y="280" as="sourcePoint" />
            <mxPoint x="1290" y="210" as="targetPoint" />
          </mxGeometry>
        </mxCell>
        <mxCell id="dA3KQazC7g9zLnKCbOtr-83" value="" style="endArrow=none;html=1;rounded=0;" edge="1" parent="WIyWlLk6GJQsqaUBKTNV-1" source="dA3KQazC7g9zLnKCbOtr-84">
          <mxGeometry width="50" height="50" relative="1" as="geometry">
            <mxPoint x="1341" y="310" as="sourcePoint" />
            <mxPoint x="1251" y="250" as="targetPoint" />
          </mxGeometry>
        </mxCell>
        <mxCell id="dA3KQazC7g9zLnKCbOtr-85" value="" style="endArrow=none;html=1;rounded=0;" edge="1" parent="WIyWlLk6GJQsqaUBKTNV-1" target="dA3KQazC7g9zLnKCbOtr-84">
          <mxGeometry width="50" height="50" relative="1" as="geometry">
            <mxPoint x="1341" y="310" as="sourcePoint" />
            <mxPoint x="1251" y="250" as="targetPoint" />
          </mxGeometry>
        </mxCell>
        <mxCell id="dA3KQazC7g9zLnKCbOtr-84" value="" style="shape=waypoint;sketch=0;size=6;pointerEvents=1;points=[];fillColor=none;resizable=0;rotatable=0;perimeter=centerPerimeter;snapToPoint=1;fontSize=16;" vertex="1" parent="WIyWlLk6GJQsqaUBKTNV-1">
          <mxGeometry x="1241" y="240" width="20" height="20" as="geometry" />
        </mxCell>
        <mxCell id="dA3KQazC7g9zLnKCbOtr-86" value="id_Playlist" style="text;html=1;align=center;verticalAlign=middle;resizable=0;points=[];autosize=1;strokeColor=none;fillColor=none;fontSize=16;" vertex="1" parent="WIyWlLk6GJQsqaUBKTNV-1">
          <mxGeometry x="1540" y="400" width="100" height="30" as="geometry" />
        </mxCell>
        <mxCell id="dA3KQazC7g9zLnKCbOtr-87" value="CREA" style="rhombus;whiteSpace=wrap;html=1;fontSize=16;" vertex="1" parent="WIyWlLk6GJQsqaUBKTNV-1">
          <mxGeometry x="1550" y="5" width="80" height="80" as="geometry" />
        </mxCell>
        <mxCell id="dA3KQazC7g9zLnKCbOtr-88" value="" style="edgeStyle=none;orthogonalLoop=1;jettySize=auto;html=1;endArrow=classic;startArrow=classic;endSize=8;startSize=8;rounded=0;fontSize=12;curved=1;entryX=0;entryY=0.5;entryDx=0;entryDy=0;exitX=1;exitY=0.25;exitDx=0;exitDy=0;" edge="1" parent="WIyWlLk6GJQsqaUBKTNV-1" source="ucVGV_VNWv9GXHvt-POz-1" target="dA3KQazC7g9zLnKCbOtr-87">
          <mxGeometry width="140" relative="1" as="geometry">
            <mxPoint x="980" y="90" as="sourcePoint" />
            <mxPoint x="1120" y="90" as="targetPoint" />
            <Array as="points" />
          </mxGeometry>
        </mxCell>
        <mxCell id="dA3KQazC7g9zLnKCbOtr-89" value="" style="edgeStyle=none;orthogonalLoop=1;jettySize=auto;html=1;endArrow=classic;startArrow=classic;endSize=8;startSize=8;rounded=0;fontSize=12;curved=1;entryX=0.5;entryY=1;entryDx=0;entryDy=0;exitX=1;exitY=0;exitDx=0;exitDy=0;" edge="1" parent="WIyWlLk6GJQsqaUBKTNV-1" source="VhTY_aMwYe6NqTjl9KjU-11" target="dA3KQazC7g9zLnKCbOtr-87">
          <mxGeometry width="140" relative="1" as="geometry">
            <mxPoint x="1300" y="60" as="sourcePoint" />
            <mxPoint x="1440" y="60" as="targetPoint" />
            <Array as="points" />
          </mxGeometry>
        </mxCell>
        <mxCell id="dA3KQazC7g9zLnKCbOtr-91" value="account" style="text;html=1;align=center;verticalAlign=middle;resizable=0;points=[];autosize=1;strokeColor=none;fillColor=none;fontSize=16;" vertex="1" parent="WIyWlLk6GJQsqaUBKTNV-1">
          <mxGeometry x="1520" y="240" width="80" height="30" as="geometry" />
        </mxCell>
        <mxCell id="dA3KQazC7g9zLnKCbOtr-92" value="" style="endArrow=none;html=1;rounded=0;exitX=0.75;exitY=0;exitDx=0;exitDy=0;entryX=0.486;entryY=1.171;entryDx=0;entryDy=0;entryPerimeter=0;" edge="1" parent="WIyWlLk6GJQsqaUBKTNV-1" source="VhTY_aMwYe6NqTjl9KjU-11" target="dA3KQazC7g9zLnKCbOtr-91">
          <mxGeometry width="50" height="50" relative="1" as="geometry">
            <mxPoint x="1331" y="510" as="sourcePoint" />
            <mxPoint x="1378" y="480" as="targetPoint" />
          </mxGeometry>
        </mxCell>
        <mxCell id="dA3KQazC7g9zLnKCbOtr-93" value="" style="endArrow=none;html=1;rounded=0;" edge="1" parent="WIyWlLk6GJQsqaUBKTNV-1">
          <mxGeometry width="50" height="50" relative="1" as="geometry">
            <mxPoint x="1550" y="290" as="sourcePoint" />
            <mxPoint x="1620" y="270" as="targetPoint" />
          </mxGeometry>
        </mxCell>
        <mxCell id="dA3KQazC7g9zLnKCbOtr-94" value="" style="endArrow=none;html=1;rounded=0;exitDx=0;exitDy=0;" edge="1" parent="WIyWlLk6GJQsqaUBKTNV-1" source="dA3KQazC7g9zLnKCbOtr-95" target="dA3KQazC7g9zLnKCbOtr-86">
          <mxGeometry width="50" height="50" relative="1" as="geometry">
            <mxPoint x="1560" y="300" as="sourcePoint" />
            <mxPoint x="1630" y="280" as="targetPoint" />
          </mxGeometry>
        </mxCell>
        <mxCell id="dA3KQazC7g9zLnKCbOtr-96" value="" style="endArrow=none;html=1;rounded=0;exitX=1;exitY=1;exitDx=0;exitDy=0;" edge="1" parent="WIyWlLk6GJQsqaUBKTNV-1" source="VhTY_aMwYe6NqTjl9KjU-11" target="dA3KQazC7g9zLnKCbOtr-95">
          <mxGeometry width="50" height="50" relative="1" as="geometry">
            <mxPoint x="1590" y="370" as="sourcePoint" />
            <mxPoint x="1590" y="400" as="targetPoint" />
          </mxGeometry>
        </mxCell>
        <mxCell id="dA3KQazC7g9zLnKCbOtr-95" value="" style="shape=waypoint;sketch=0;size=6;pointerEvents=1;points=[];fillColor=none;resizable=0;rotatable=0;perimeter=centerPerimeter;snapToPoint=1;fontSize=16;" vertex="1" parent="WIyWlLk6GJQsqaUBKTNV-1">
          <mxGeometry x="1580" y="390" width="20" height="20" as="geometry" />
        </mxCell>
        <mxCell id="dA3KQazC7g9zLnKCbOtr-97" value="" style="endArrow=none;html=1;rounded=0;exitX=0;exitY=1;exitDx=0;exitDy=0;" edge="1" parent="WIyWlLk6GJQsqaUBKTNV-1" source="VhTY_aMwYe6NqTjl9KjU-11" target="dA3KQazC7g9zLnKCbOtr-98">
          <mxGeometry width="50" height="50" relative="1" as="geometry">
            <mxPoint x="1570" y="470" as="sourcePoint" />
            <mxPoint x="1630" y="490" as="targetPoint" />
          </mxGeometry>
        </mxCell>
        <mxCell id="dA3KQazC7g9zLnKCbOtr-98" value="titolo" style="text;html=1;align=center;verticalAlign=middle;resizable=0;points=[];autosize=1;strokeColor=none;fillColor=none;fontSize=16;" vertex="1" parent="WIyWlLk6GJQsqaUBKTNV-1">
          <mxGeometry x="1421" y="390" width="60" height="30" as="geometry" />
        </mxCell>
        <mxCell id="dA3KQazC7g9zLnKCbOtr-99" value="descrizione" style="text;html=1;align=center;verticalAlign=middle;resizable=0;points=[];autosize=1;strokeColor=none;fillColor=none;fontSize=16;" vertex="1" parent="WIyWlLk6GJQsqaUBKTNV-1">
          <mxGeometry x="1431" y="250" width="100" height="30" as="geometry" />
        </mxCell>
        <mxCell id="dA3KQazC7g9zLnKCbOtr-100" value="" style="endArrow=none;html=1;rounded=0;exitX=0.379;exitY=0.995;exitDx=0;exitDy=0;exitPerimeter=0;entryX=0;entryY=0;entryDx=0;entryDy=0;" edge="1" parent="WIyWlLk6GJQsqaUBKTNV-1" source="dA3KQazC7g9zLnKCbOtr-99" target="VhTY_aMwYe6NqTjl9KjU-11">
          <mxGeometry width="50" height="50" relative="1" as="geometry">
            <mxPoint x="1580" y="320" as="sourcePoint" />
            <mxPoint x="1650" y="300" as="targetPoint" />
          </mxGeometry>
        </mxCell>
        <mxCell id="dA3KQazC7g9zLnKCbOtr-101" value="&lt;table class=&quot;simple-table&quot; id=&quot;916551be-5cc0-44bd-9a47-0592567e56a0&quot;&gt;&lt;tbody&gt;&lt;tr id=&quot;5c6ae606-26f6-4cf9-82dd-6070d741fee2&quot;&gt;&lt;th style=&quot;width:232.66666666666666px&quot; class=&quot;simple-table-header-color simple-table-header&quot; id=&quot;Tf&gt;j&quot;&gt;visibilità&lt;/th&gt;&lt;/tr&gt;&lt;/tbody&gt;&lt;/table&gt;" style="text;html=1;align=center;verticalAlign=middle;resizable=0;points=[];autosize=1;strokeColor=none;fillColor=none;fontSize=16;" vertex="1" parent="WIyWlLk6GJQsqaUBKTNV-1">
          <mxGeometry x="1361" y="410" width="260" height="40" as="geometry" />
        </mxCell>
        <mxCell id="dA3KQazC7g9zLnKCbOtr-102" value="" style="endArrow=none;html=1;rounded=0;exitX=0.25;exitY=1;exitDx=0;exitDy=0;" edge="1" parent="WIyWlLk6GJQsqaUBKTNV-1" source="VhTY_aMwYe6NqTjl9KjU-11" target="dA3KQazC7g9zLnKCbOtr-101">
          <mxGeometry width="50" height="50" relative="1" as="geometry">
            <mxPoint x="1480" y="380" as="sourcePoint" />
            <mxPoint x="1469" y="400" as="targetPoint" />
          </mxGeometry>
        </mxCell>
        <mxCell id="dA3KQazC7g9zLnKCbOtr-105" value="id_Commento" style="text;html=1;align=center;verticalAlign=middle;resizable=0;points=[];autosize=1;strokeColor=none;fillColor=none;fontSize=16;" vertex="1" parent="WIyWlLk6GJQsqaUBKTNV-1">
          <mxGeometry x="780" y="615" width="120" height="30" as="geometry" />
        </mxCell>
        <mxCell id="dA3KQazC7g9zLnKCbOtr-106" value="account" style="text;html=1;align=center;verticalAlign=middle;resizable=0;points=[];autosize=1;strokeColor=none;fillColor=none;fontSize=16;" vertex="1" parent="WIyWlLk6GJQsqaUBKTNV-1">
          <mxGeometry x="700" y="636" width="80" height="30" as="geometry" />
        </mxCell>
        <mxCell id="dA3KQazC7g9zLnKCbOtr-107" value="id_Video" style="text;html=1;align=center;verticalAlign=middle;resizable=0;points=[];autosize=1;strokeColor=none;fillColor=none;fontSize=16;" vertex="1" parent="WIyWlLk6GJQsqaUBKTNV-1">
          <mxGeometry x="840" y="656" width="90" height="30" as="geometry" />
        </mxCell>
        <mxCell id="dA3KQazC7g9zLnKCbOtr-108" value="messaggio" style="text;html=1;align=center;verticalAlign=middle;resizable=0;points=[];autosize=1;strokeColor=none;fillColor=none;fontSize=16;" vertex="1" parent="WIyWlLk6GJQsqaUBKTNV-1">
          <mxGeometry x="815" y="780" width="100" height="30" as="geometry" />
        </mxCell>
        <mxCell id="dA3KQazC7g9zLnKCbOtr-110" value="donazione" style="text;html=1;align=center;verticalAlign=middle;resizable=0;points=[];autosize=1;strokeColor=none;fillColor=none;fontSize=16;" vertex="1" parent="WIyWlLk6GJQsqaUBKTNV-1">
          <mxGeometry x="822" y="890" width="100" height="30" as="geometry" />
        </mxCell>
        <mxCell id="dA3KQazC7g9zLnKCbOtr-111" value="dataCommento" style="text;html=1;align=center;verticalAlign=middle;resizable=0;points=[];autosize=1;strokeColor=none;fillColor=none;fontSize=16;" vertex="1" parent="WIyWlLk6GJQsqaUBKTNV-1">
          <mxGeometry x="610" y="776" width="130" height="30" as="geometry" />
        </mxCell>
        <mxCell id="dA3KQazC7g9zLnKCbOtr-112" value="id_Risposta" style="text;html=1;align=center;verticalAlign=middle;resizable=0;points=[];autosize=1;strokeColor=none;fillColor=none;fontSize=16;" vertex="1" parent="WIyWlLk6GJQsqaUBKTNV-1">
          <mxGeometry x="590" y="646" width="110" height="30" as="geometry" />
        </mxCell>
        <mxCell id="dA3KQazC7g9zLnKCbOtr-113" value="" style="endArrow=none;html=1;rounded=0;exitX=1;exitY=1;exitDx=0;exitDy=0;entryX=0.614;entryY=0.09;entryDx=0;entryDy=0;entryPerimeter=0;" edge="1" parent="WIyWlLk6GJQsqaUBKTNV-1" source="ucVGV_VNWv9GXHvt-POz-17" target="dA3KQazC7g9zLnKCbOtr-110">
          <mxGeometry width="50" height="50" relative="1" as="geometry">
            <mxPoint x="1223" y="699" as="sourcePoint" />
            <mxPoint x="1226" y="673" as="targetPoint" />
          </mxGeometry>
        </mxCell>
        <mxCell id="dA3KQazC7g9zLnKCbOtr-115" value="" style="endArrow=none;html=1;rounded=0;entryX=0.75;entryY=0;entryDx=0;entryDy=0;exitDx=0;exitDy=0;exitPerimeter=0;" edge="1" parent="WIyWlLk6GJQsqaUBKTNV-1" source="dA3KQazC7g9zLnKCbOtr-119" target="ucVGV_VNWv9GXHvt-POz-14">
          <mxGeometry width="50" height="50" relative="1" as="geometry">
            <mxPoint x="850" y="876" as="sourcePoint" />
            <mxPoint x="820" y="700" as="targetPoint" />
          </mxGeometry>
        </mxCell>
        <mxCell id="dA3KQazC7g9zLnKCbOtr-116" value="" style="endArrow=none;html=1;rounded=0;exitX=0.321;exitY=1.033;exitDx=0;exitDy=0;entryX=1;entryY=0.25;entryDx=0;entryDy=0;exitPerimeter=0;" edge="1" parent="WIyWlLk6GJQsqaUBKTNV-1" source="dA3KQazC7g9zLnKCbOtr-107" target="ucVGV_VNWv9GXHvt-POz-14">
          <mxGeometry width="50" height="50" relative="1" as="geometry">
            <mxPoint x="860" y="886" as="sourcePoint" />
            <mxPoint x="902" y="913" as="targetPoint" />
          </mxGeometry>
        </mxCell>
        <mxCell id="dA3KQazC7g9zLnKCbOtr-117" value="" style="endArrow=none;html=1;rounded=0;exitX=0.521;exitY=1.033;exitDx=0;exitDy=0;entryX=0.25;entryY=0;entryDx=0;entryDy=0;exitPerimeter=0;" edge="1" parent="WIyWlLk6GJQsqaUBKTNV-1" source="dA3KQazC7g9zLnKCbOtr-106" target="ucVGV_VNWv9GXHvt-POz-14">
          <mxGeometry width="50" height="50" relative="1" as="geometry">
            <mxPoint x="870" y="896" as="sourcePoint" />
            <mxPoint x="912" y="923" as="targetPoint" />
          </mxGeometry>
        </mxCell>
        <mxCell id="dA3KQazC7g9zLnKCbOtr-118" value="" style="endArrow=none;html=1;rounded=0;" edge="1" parent="WIyWlLk6GJQsqaUBKTNV-1">
          <mxGeometry width="50" height="50" relative="1" as="geometry">
            <mxPoint x="730" y="680" as="sourcePoint" />
            <mxPoint x="790" y="670" as="targetPoint" />
          </mxGeometry>
        </mxCell>
        <mxCell id="dA3KQazC7g9zLnKCbOtr-120" value="" style="endArrow=none;html=1;rounded=0;exitX=1;exitY=0.75;exitDx=0;exitDy=0;entryX=0.481;entryY=0.043;entryDx=0;entryDy=0;entryPerimeter=0;" edge="1" parent="WIyWlLk6GJQsqaUBKTNV-1" source="ucVGV_VNWv9GXHvt-POz-14" target="dA3KQazC7g9zLnKCbOtr-108">
          <mxGeometry width="50" height="50" relative="1" as="geometry">
            <mxPoint x="890" y="916" as="sourcePoint" />
            <mxPoint x="932" y="943" as="targetPoint" />
          </mxGeometry>
        </mxCell>
        <mxCell id="dA3KQazC7g9zLnKCbOtr-121" value="" style="endArrow=none;html=1;rounded=0;exitX=0.509;exitY=1.224;exitDx=0;exitDy=0;entryX=0;entryY=0.25;entryDx=0;entryDy=0;exitPerimeter=0;" edge="1" parent="WIyWlLk6GJQsqaUBKTNV-1" source="dA3KQazC7g9zLnKCbOtr-112" target="ucVGV_VNWv9GXHvt-POz-14">
          <mxGeometry width="50" height="50" relative="1" as="geometry">
            <mxPoint x="900" y="926" as="sourcePoint" />
            <mxPoint x="942" y="953" as="targetPoint" />
          </mxGeometry>
        </mxCell>
        <mxCell id="dA3KQazC7g9zLnKCbOtr-122" value="" style="endArrow=none;html=1;rounded=0;exitX=0.519;exitY=-0.062;exitDx=0;exitDy=0;entryX=0;entryY=0.75;entryDx=0;entryDy=0;exitPerimeter=0;" edge="1" parent="WIyWlLk6GJQsqaUBKTNV-1" source="dA3KQazC7g9zLnKCbOtr-111" target="ucVGV_VNWv9GXHvt-POz-14">
          <mxGeometry width="50" height="50" relative="1" as="geometry">
            <mxPoint x="910" y="936" as="sourcePoint" />
            <mxPoint x="952" y="963" as="targetPoint" />
          </mxGeometry>
        </mxCell>
        <mxCell id="dA3KQazC7g9zLnKCbOtr-123" value="" style="endArrow=none;html=1;rounded=0;entryDx=0;entryDy=0;exitX=0.467;exitY=0.948;exitDx=0;exitDy=0;exitPerimeter=0;" edge="1" parent="WIyWlLk6GJQsqaUBKTNV-1" source="dA3KQazC7g9zLnKCbOtr-105" target="dA3KQazC7g9zLnKCbOtr-119">
          <mxGeometry width="50" height="50" relative="1" as="geometry">
            <mxPoint x="836" y="643" as="sourcePoint" />
            <mxPoint x="810" y="706" as="targetPoint" />
          </mxGeometry>
        </mxCell>
        <mxCell id="dA3KQazC7g9zLnKCbOtr-119" value="" style="shape=waypoint;sketch=0;size=6;pointerEvents=1;points=[];fillColor=none;resizable=0;rotatable=0;perimeter=centerPerimeter;snapToPoint=1;fontSize=16;" vertex="1" parent="WIyWlLk6GJQsqaUBKTNV-1">
          <mxGeometry x="827" y="636" width="20" height="20" as="geometry" />
        </mxCell>
        <mxCell id="dA3KQazC7g9zLnKCbOtr-124" value="" style="endArrow=none;html=1;rounded=0;exitX=0.067;exitY=1.129;exitDx=0;exitDy=0;exitPerimeter=0;" edge="1" parent="WIyWlLk6GJQsqaUBKTNV-1" source="dA3KQazC7g9zLnKCbOtr-107">
          <mxGeometry width="50" height="50" relative="1" as="geometry">
            <mxPoint x="920" y="946" as="sourcePoint" />
            <mxPoint x="880" y="730" as="targetPoint" />
          </mxGeometry>
        </mxCell>
        <mxCell id="dA3KQazC7g9zLnKCbOtr-126" value="id_Segnalazione" style="text;html=1;align=center;verticalAlign=middle;resizable=0;points=[];autosize=1;strokeColor=none;fillColor=none;fontSize=16;" vertex="1" parent="WIyWlLk6GJQsqaUBKTNV-1">
          <mxGeometry x="960" y="280" width="140" height="30" as="geometry" />
        </mxCell>
        <mxCell id="dA3KQazC7g9zLnKCbOtr-127" value="account" style="text;html=1;align=center;verticalAlign=middle;resizable=0;points=[];autosize=1;strokeColor=none;fillColor=none;fontSize=16;" vertex="1" parent="WIyWlLk6GJQsqaUBKTNV-1">
          <mxGeometry x="970" y="385" width="80" height="30" as="geometry" />
        </mxCell>
        <mxCell id="dA3KQazC7g9zLnKCbOtr-130" value="" style="endArrow=none;html=1;rounded=0;entryX=0;entryY=0.75;entryDx=0;entryDy=0;" edge="1" parent="WIyWlLk6GJQsqaUBKTNV-1" source="dA3KQazC7g9zLnKCbOtr-127" target="ucVGV_VNWv9GXHvt-POz-38">
          <mxGeometry width="50" height="50" relative="1" as="geometry">
            <mxPoint x="1320" y="290" as="sourcePoint" />
            <mxPoint x="1300" y="220" as="targetPoint" />
          </mxGeometry>
        </mxCell>
        <mxCell id="dA3KQazC7g9zLnKCbOtr-131" value="" style="endArrow=none;html=1;rounded=0;" edge="1" parent="WIyWlLk6GJQsqaUBKTNV-1">
          <mxGeometry width="50" height="50" relative="1" as="geometry">
            <mxPoint x="1055" y="380" as="sourcePoint" />
            <mxPoint x="1035" y="335" as="targetPoint" />
          </mxGeometry>
        </mxCell>
        <mxCell id="dA3KQazC7g9zLnKCbOtr-132" value="" style="endArrow=none;html=1;rounded=0;entryX=0.452;entryY=1.138;entryDx=0;entryDy=0;entryPerimeter=0;exitDx=0;exitDy=0;" edge="1" parent="WIyWlLk6GJQsqaUBKTNV-1" source="dA3KQazC7g9zLnKCbOtr-133" target="dA3KQazC7g9zLnKCbOtr-126">
          <mxGeometry width="50" height="50" relative="1" as="geometry">
            <mxPoint x="1340" y="310" as="sourcePoint" />
            <mxPoint x="1320" y="240" as="targetPoint" />
          </mxGeometry>
        </mxCell>
        <mxCell id="dA3KQazC7g9zLnKCbOtr-134" value="" style="endArrow=none;html=1;rounded=0;entryDx=0;entryDy=0;entryPerimeter=0;exitX=0;exitY=0.25;exitDx=0;exitDy=0;" edge="1" parent="WIyWlLk6GJQsqaUBKTNV-1" source="ucVGV_VNWv9GXHvt-POz-38" target="dA3KQazC7g9zLnKCbOtr-133">
          <mxGeometry width="50" height="50" relative="1" as="geometry">
            <mxPoint x="1060" y="335" as="sourcePoint" />
            <mxPoint x="1023" y="314" as="targetPoint" />
          </mxGeometry>
        </mxCell>
        <mxCell id="dA3KQazC7g9zLnKCbOtr-133" value="" style="shape=waypoint;sketch=0;size=6;pointerEvents=1;points=[];fillColor=none;resizable=0;rotatable=0;perimeter=centerPerimeter;snapToPoint=1;fontSize=16;" vertex="1" parent="WIyWlLk6GJQsqaUBKTNV-1">
          <mxGeometry x="1015" y="300" width="20" height="20" as="geometry" />
        </mxCell>
        <mxCell id="dA3KQazC7g9zLnKCbOtr-135" value="id_Video" style="text;html=1;align=center;verticalAlign=middle;resizable=0;points=[];autosize=1;strokeColor=none;fillColor=none;fontSize=16;" vertex="1" parent="WIyWlLk6GJQsqaUBKTNV-1">
          <mxGeometry x="1180" y="290" width="90" height="30" as="geometry" />
        </mxCell>
        <mxCell id="dA3KQazC7g9zLnKCbOtr-137" value="" style="endArrow=none;html=1;rounded=0;entryX=1;entryY=0.5;entryDx=0;entryDy=0;" edge="1" parent="WIyWlLk6GJQsqaUBKTNV-1" source="dA3KQazC7g9zLnKCbOtr-135" target="ucVGV_VNWv9GXHvt-POz-38">
          <mxGeometry width="50" height="50" relative="1" as="geometry">
            <mxPoint x="1350" y="320" as="sourcePoint" />
            <mxPoint x="1330" y="250" as="targetPoint" />
          </mxGeometry>
        </mxCell>
        <mxCell id="dA3KQazC7g9zLnKCbOtr-139" value="" style="endArrow=none;html=1;rounded=0;" edge="1" parent="WIyWlLk6GJQsqaUBKTNV-1">
          <mxGeometry width="50" height="50" relative="1" as="geometry">
            <mxPoint x="1220" y="360" as="sourcePoint" />
            <mxPoint x="1170" y="310" as="targetPoint" />
          </mxGeometry>
        </mxCell>
        <mxCell id="dA3KQazC7g9zLnKCbOtr-140" value="motivo" style="text;html=1;align=center;verticalAlign=middle;resizable=0;points=[];autosize=1;strokeColor=none;fillColor=none;fontSize=16;" vertex="1" parent="WIyWlLk6GJQsqaUBKTNV-1">
          <mxGeometry x="1121" y="270" width="70" height="30" as="geometry" />
        </mxCell>
        <mxCell id="dA3KQazC7g9zLnKCbOtr-142" value="descrizione" style="text;html=1;align=center;verticalAlign=middle;resizable=0;points=[];autosize=1;strokeColor=none;fillColor=none;fontSize=16;" vertex="1" parent="WIyWlLk6GJQsqaUBKTNV-1">
          <mxGeometry x="1050" y="255" width="100" height="30" as="geometry" />
        </mxCell>
        <mxCell id="dA3KQazC7g9zLnKCbOtr-143" value="data" style="text;html=1;align=center;verticalAlign=middle;resizable=0;points=[];autosize=1;strokeColor=none;fillColor=none;fontSize=16;" vertex="1" parent="WIyWlLk6GJQsqaUBKTNV-1">
          <mxGeometry x="1040" y="400" width="50" height="30" as="geometry" />
        </mxCell>
        <mxCell id="dA3KQazC7g9zLnKCbOtr-145" value="" style="endArrow=none;html=1;rounded=0;entryX=0.433;entryY=1.043;entryDx=0;entryDy=0;entryPerimeter=0;exitX=0.5;exitY=0;exitDx=0;exitDy=0;" edge="1" parent="WIyWlLk6GJQsqaUBKTNV-1" source="ucVGV_VNWv9GXHvt-POz-38" target="dA3KQazC7g9zLnKCbOtr-142">
          <mxGeometry width="50" height="50" relative="1" as="geometry">
            <mxPoint x="1370" y="340" as="sourcePoint" />
            <mxPoint x="1350" y="270" as="targetPoint" />
          </mxGeometry>
        </mxCell>
        <mxCell id="dA3KQazC7g9zLnKCbOtr-146" value="" style="endArrow=none;html=1;rounded=0;entryX=0.435;entryY=1.043;entryDx=0;entryDy=0;entryPerimeter=0;exitX=0.75;exitY=0;exitDx=0;exitDy=0;" edge="1" parent="WIyWlLk6GJQsqaUBKTNV-1" source="ucVGV_VNWv9GXHvt-POz-38" target="dA3KQazC7g9zLnKCbOtr-140">
          <mxGeometry width="50" height="50" relative="1" as="geometry">
            <mxPoint x="1380" y="350" as="sourcePoint" />
            <mxPoint x="1360" y="280" as="targetPoint" />
          </mxGeometry>
        </mxCell>
        <mxCell id="dA3KQazC7g9zLnKCbOtr-147" value="" style="endArrow=none;html=1;rounded=0;entryX=0.25;entryY=1;entryDx=0;entryDy=0;" edge="1" parent="WIyWlLk6GJQsqaUBKTNV-1" source="dA3KQazC7g9zLnKCbOtr-143" target="ucVGV_VNWv9GXHvt-POz-38">
          <mxGeometry width="50" height="50" relative="1" as="geometry">
            <mxPoint x="1390" y="360" as="sourcePoint" />
            <mxPoint x="1370" y="290" as="targetPoint" />
          </mxGeometry>
        </mxCell>
        <mxCell id="dA3KQazC7g9zLnKCbOtr-148" value="account" style="text;html=1;align=center;verticalAlign=middle;resizable=0;points=[];autosize=1;strokeColor=none;fillColor=none;fontSize=16;" vertex="1" parent="WIyWlLk6GJQsqaUBKTNV-1">
          <mxGeometry x="330" y="410" width="80" height="30" as="geometry" />
        </mxCell>
        <mxCell id="dA3KQazC7g9zLnKCbOtr-149" value="" style="endArrow=none;html=1;rounded=0;" edge="1" parent="WIyWlLk6GJQsqaUBKTNV-1">
          <mxGeometry width="50" height="50" relative="1" as="geometry">
            <mxPoint x="435" y="410" as="sourcePoint" />
            <mxPoint x="435" y="410" as="targetPoint" />
          </mxGeometry>
        </mxCell>
        <mxCell id="dA3KQazC7g9zLnKCbOtr-150" value="id_Segnalazione" style="text;html=1;align=center;verticalAlign=middle;resizable=0;points=[];autosize=1;strokeColor=none;fillColor=none;fontSize=16;" vertex="1" parent="WIyWlLk6GJQsqaUBKTNV-1">
          <mxGeometry x="170" y="415" width="140" height="30" as="geometry" />
        </mxCell>
        <mxCell id="dA3KQazC7g9zLnKCbOtr-151" value="" style="endArrow=none;html=1;rounded=0;entryX=0.452;entryY=1.138;entryDx=0;entryDy=0;entryPerimeter=0;exitDx=0;exitDy=0;" edge="1" parent="WIyWlLk6GJQsqaUBKTNV-1" source="dA3KQazC7g9zLnKCbOtr-152" target="dA3KQazC7g9zLnKCbOtr-150">
          <mxGeometry width="50" height="50" relative="1" as="geometry">
            <mxPoint x="524" y="470" as="sourcePoint" />
            <mxPoint x="504" y="400" as="targetPoint" />
          </mxGeometry>
        </mxCell>
        <mxCell id="dA3KQazC7g9zLnKCbOtr-153" value="id_Commento" style="text;html=1;align=center;verticalAlign=middle;resizable=0;points=[];autosize=1;strokeColor=none;fillColor=none;fontSize=16;" vertex="1" parent="WIyWlLk6GJQsqaUBKTNV-1">
          <mxGeometry x="364" y="600" width="120" height="30" as="geometry" />
        </mxCell>
        <mxCell id="dA3KQazC7g9zLnKCbOtr-154" value="motivo" style="text;html=1;align=center;verticalAlign=middle;resizable=0;points=[];autosize=1;strokeColor=none;fillColor=none;fontSize=16;" vertex="1" parent="WIyWlLk6GJQsqaUBKTNV-1">
          <mxGeometry x="384" y="430" width="70" height="30" as="geometry" />
        </mxCell>
        <mxCell id="dA3KQazC7g9zLnKCbOtr-157" value="" style="endArrow=none;html=1;rounded=0;entryX=0.435;entryY=1.043;entryDx=0;entryDy=0;entryPerimeter=0;exitX=1;exitY=0;exitDx=0;exitDy=0;" edge="1" parent="WIyWlLk6GJQsqaUBKTNV-1" target="dA3KQazC7g9zLnKCbOtr-154" source="ucVGV_VNWv9GXHvt-POz-36">
          <mxGeometry width="50" height="50" relative="1" as="geometry">
            <mxPoint x="334" y="480" as="sourcePoint" />
            <mxPoint x="544" y="440" as="targetPoint" />
          </mxGeometry>
        </mxCell>
        <mxCell id="dA3KQazC7g9zLnKCbOtr-158" value="" style="endArrow=none;html=1;rounded=0;exitDx=0;exitDy=0;entryX=0.483;entryY=1.162;entryDx=0;entryDy=0;entryPerimeter=0;" edge="1" parent="WIyWlLk6GJQsqaUBKTNV-1" source="dA3KQazC7g9zLnKCbOtr-152" target="dA3KQazC7g9zLnKCbOtr-150">
          <mxGeometry width="50" height="50" relative="1" as="geometry">
            <mxPoint x="314" y="490" as="sourcePoint" />
            <mxPoint x="287" y="456" as="targetPoint" />
          </mxGeometry>
        </mxCell>
        <mxCell id="dA3KQazC7g9zLnKCbOtr-159" value="" style="endArrow=none;html=1;rounded=0;entryX=1;entryY=1;entryDx=0;entryDy=0;" edge="1" parent="WIyWlLk6GJQsqaUBKTNV-1" source="dA3KQazC7g9zLnKCbOtr-153" target="ucVGV_VNWv9GXHvt-POz-36">
          <mxGeometry width="50" height="50" relative="1" as="geometry">
            <mxPoint x="324" y="500" as="sourcePoint" />
            <mxPoint x="297" y="466" as="targetPoint" />
          </mxGeometry>
        </mxCell>
        <mxCell id="dA3KQazC7g9zLnKCbOtr-160" value="" style="endArrow=none;html=1;rounded=0;" edge="1" parent="WIyWlLk6GJQsqaUBKTNV-1">
          <mxGeometry width="50" height="50" relative="1" as="geometry">
            <mxPoint x="410" y="570" as="sourcePoint" />
            <mxPoint x="320" y="590" as="targetPoint" />
          </mxGeometry>
        </mxCell>
        <mxCell id="dA3KQazC7g9zLnKCbOtr-161" value="" style="endArrow=none;html=1;rounded=0;entryX=0.363;entryY=1.043;entryDx=0;entryDy=0;entryPerimeter=0;exitX=0.75;exitY=0;exitDx=0;exitDy=0;" edge="1" parent="WIyWlLk6GJQsqaUBKTNV-1" source="ucVGV_VNWv9GXHvt-POz-36" target="dA3KQazC7g9zLnKCbOtr-148">
          <mxGeometry width="50" height="50" relative="1" as="geometry">
            <mxPoint x="350" y="480" as="sourcePoint" />
            <mxPoint x="317" y="486" as="targetPoint" />
          </mxGeometry>
        </mxCell>
        <mxCell id="dA3KQazC7g9zLnKCbOtr-162" value="" style="endArrow=none;html=1;rounded=0;" edge="1" parent="WIyWlLk6GJQsqaUBKTNV-1">
          <mxGeometry width="50" height="50" relative="1" as="geometry">
            <mxPoint x="370" y="460" as="sourcePoint" />
            <mxPoint x="300" y="460" as="targetPoint" />
          </mxGeometry>
        </mxCell>
        <mxCell id="dA3KQazC7g9zLnKCbOtr-163" value="data" style="text;html=1;align=center;verticalAlign=middle;resizable=0;points=[];autosize=1;strokeColor=none;fillColor=none;fontSize=16;" vertex="1" parent="WIyWlLk6GJQsqaUBKTNV-1">
          <mxGeometry x="180" y="531" width="50" height="30" as="geometry" />
        </mxCell>
        <mxCell id="dA3KQazC7g9zLnKCbOtr-164" value="" style="endArrow=none;html=1;rounded=0;exitX=0;exitY=0.5;exitDx=0;exitDy=0;entryX=0.894;entryY=0.043;entryDx=0;entryDy=0;entryPerimeter=0;" edge="1" parent="WIyWlLk6GJQsqaUBKTNV-1" source="ucVGV_VNWv9GXHvt-POz-36" target="dA3KQazC7g9zLnKCbOtr-163">
          <mxGeometry width="50" height="50" relative="1" as="geometry">
            <mxPoint x="364" y="540" as="sourcePoint" />
            <mxPoint x="174" y="530" as="targetPoint" />
          </mxGeometry>
        </mxCell>
        <mxCell id="dA3KQazC7g9zLnKCbOtr-165" value="" style="endArrow=none;html=1;rounded=0;exitX=0;exitY=0;exitDx=0;exitDy=0;entryDx=0;entryDy=0;entryPerimeter=0;" edge="1" parent="WIyWlLk6GJQsqaUBKTNV-1" source="ucVGV_VNWv9GXHvt-POz-36" target="dA3KQazC7g9zLnKCbOtr-152">
          <mxGeometry width="50" height="50" relative="1" as="geometry">
            <mxPoint x="260" y="490" as="sourcePoint" />
            <mxPoint x="238" y="450" as="targetPoint" />
          </mxGeometry>
        </mxCell>
        <mxCell id="dA3KQazC7g9zLnKCbOtr-152" value="" style="shape=waypoint;sketch=0;size=6;pointerEvents=1;points=[];fillColor=none;resizable=0;rotatable=0;perimeter=centerPerimeter;snapToPoint=1;fontSize=16;" vertex="1" parent="WIyWlLk6GJQsqaUBKTNV-1">
          <mxGeometry x="230" y="440" width="20" height="20" as="geometry" />
        </mxCell>
        <mxCell id="dA3KQazC7g9zLnKCbOtr-168" value="id_Like" style="text;html=1;align=center;verticalAlign=middle;resizable=0;points=[];autosize=1;strokeColor=none;fillColor=none;fontSize=16;" vertex="1" parent="WIyWlLk6GJQsqaUBKTNV-1">
          <mxGeometry x="590" y="460" width="70" height="30" as="geometry" />
        </mxCell>
        <mxCell id="dA3KQazC7g9zLnKCbOtr-169" value="account" style="text;html=1;align=center;verticalAlign=middle;resizable=0;points=[];autosize=1;strokeColor=none;fillColor=none;fontSize=16;" vertex="1" parent="WIyWlLk6GJQsqaUBKTNV-1">
          <mxGeometry x="490" y="410" width="80" height="30" as="geometry" />
        </mxCell>
        <mxCell id="dA3KQazC7g9zLnKCbOtr-170" value="id_Commento" style="text;html=1;align=center;verticalAlign=middle;resizable=0;points=[];autosize=1;strokeColor=none;fillColor=none;fontSize=16;" vertex="1" parent="WIyWlLk6GJQsqaUBKTNV-1">
          <mxGeometry x="520" y="570" width="120" height="30" as="geometry" />
        </mxCell>
        <mxCell id="dA3KQazC7g9zLnKCbOtr-171" value="data" style="text;html=1;align=center;verticalAlign=middle;resizable=0;points=[];autosize=1;strokeColor=none;fillColor=none;fontSize=16;" vertex="1" parent="WIyWlLk6GJQsqaUBKTNV-1">
          <mxGeometry x="470" y="575" width="50" height="30" as="geometry" />
        </mxCell>
        <mxCell id="dA3KQazC7g9zLnKCbOtr-172" value="valutation" style="text;html=1;align=center;verticalAlign=middle;resizable=0;points=[];autosize=1;strokeColor=none;fillColor=none;fontSize=16;" vertex="1" parent="WIyWlLk6GJQsqaUBKTNV-1">
          <mxGeometry x="560" y="430" width="90" height="30" as="geometry" />
        </mxCell>
        <mxCell id="dA3KQazC7g9zLnKCbOtr-173" value="id_Like" style="text;html=1;align=center;verticalAlign=middle;resizable=0;points=[];autosize=1;strokeColor=none;fillColor=none;fontSize=16;" vertex="1" parent="WIyWlLk6GJQsqaUBKTNV-1">
          <mxGeometry x="1221" y="746" width="70" height="30" as="geometry" />
        </mxCell>
        <mxCell id="dA3KQazC7g9zLnKCbOtr-174" value="account" style="text;html=1;align=center;verticalAlign=middle;resizable=0;points=[];autosize=1;strokeColor=none;fillColor=none;fontSize=16;" vertex="1" parent="WIyWlLk6GJQsqaUBKTNV-1">
          <mxGeometry x="940" y="810" width="80" height="30" as="geometry" />
        </mxCell>
        <mxCell id="dA3KQazC7g9zLnKCbOtr-175" value="data" style="text;html=1;align=center;verticalAlign=middle;resizable=0;points=[];autosize=1;strokeColor=none;fillColor=none;fontSize=16;" vertex="1" parent="WIyWlLk6GJQsqaUBKTNV-1">
          <mxGeometry x="1226" y="780" width="50" height="30" as="geometry" />
        </mxCell>
        <mxCell id="dA3KQazC7g9zLnKCbOtr-176" value="valutation" style="text;html=1;align=center;verticalAlign=middle;resizable=0;points=[];autosize=1;strokeColor=none;fillColor=none;fontSize=16;" vertex="1" parent="WIyWlLk6GJQsqaUBKTNV-1">
          <mxGeometry x="1241" y="810" width="90" height="30" as="geometry" />
        </mxCell>
        <mxCell id="dA3KQazC7g9zLnKCbOtr-177" value="id_Video" style="text;html=1;align=center;verticalAlign=middle;resizable=0;points=[];autosize=1;strokeColor=none;fillColor=none;fontSize=16;" vertex="1" parent="WIyWlLk6GJQsqaUBKTNV-1">
          <mxGeometry x="1030" y="721" width="90" height="30" as="geometry" />
        </mxCell>
        <mxCell id="dA3KQazC7g9zLnKCbOtr-178" value="" style="endArrow=none;html=1;rounded=0;entryX=0.357;entryY=0.081;entryDx=0;entryDy=0;entryPerimeter=0;exitX=0.5;exitY=1;exitDx=0;exitDy=0;" edge="1" parent="WIyWlLk6GJQsqaUBKTNV-1" source="ucVGV_VNWv9GXHvt-POz-39" target="dA3KQazC7g9zLnKCbOtr-171">
          <mxGeometry width="50" height="50" relative="1" as="geometry">
            <mxPoint x="420" y="580" as="sourcePoint" />
            <mxPoint x="330" y="600" as="targetPoint" />
          </mxGeometry>
        </mxCell>
        <mxCell id="dA3KQazC7g9zLnKCbOtr-180" value="" style="endArrow=none;html=1;rounded=0;exitX=0.408;exitY=-0.029;exitDx=0;exitDy=0;exitPerimeter=0;entryX=1;entryY=1;entryDx=0;entryDy=0;" edge="1" parent="WIyWlLk6GJQsqaUBKTNV-1" source="dA3KQazC7g9zLnKCbOtr-170" target="ucVGV_VNWv9GXHvt-POz-39">
          <mxGeometry width="50" height="50" relative="1" as="geometry">
            <mxPoint x="430" y="590" as="sourcePoint" />
            <mxPoint x="340" y="610" as="targetPoint" />
          </mxGeometry>
        </mxCell>
        <mxCell id="dA3KQazC7g9zLnKCbOtr-181" value="" style="endArrow=none;html=1;rounded=0;exitX=-0.055;exitY=0.662;exitDx=0;exitDy=0;exitPerimeter=0;entryX=1;entryY=0;entryDx=0;entryDy=0;" edge="1" parent="WIyWlLk6GJQsqaUBKTNV-1" source="dA3KQazC7g9zLnKCbOtr-168" target="ucVGV_VNWv9GXHvt-POz-39">
          <mxGeometry width="50" height="50" relative="1" as="geometry">
            <mxPoint x="440" y="600" as="sourcePoint" />
            <mxPoint x="350" y="620" as="targetPoint" />
          </mxGeometry>
        </mxCell>
        <mxCell id="dA3KQazC7g9zLnKCbOtr-183" value="" style="endArrow=none;html=1;rounded=0;exitX=0.29;exitY=1.09;exitDx=0;exitDy=0;exitPerimeter=0;entryX=0.75;entryY=0;entryDx=0;entryDy=0;" edge="1" parent="WIyWlLk6GJQsqaUBKTNV-1" source="dA3KQazC7g9zLnKCbOtr-172" target="ucVGV_VNWv9GXHvt-POz-39">
          <mxGeometry width="50" height="50" relative="1" as="geometry">
            <mxPoint x="450" y="610" as="sourcePoint" />
            <mxPoint x="360" y="630" as="targetPoint" />
          </mxGeometry>
        </mxCell>
        <mxCell id="dA3KQazC7g9zLnKCbOtr-184" value="" style="endArrow=none;html=1;rounded=0;exitX=0.623;exitY=-0.002;exitDx=0;exitDy=0;exitPerimeter=0;entryX=0.384;entryY=1.09;entryDx=0;entryDy=0;entryPerimeter=0;" edge="1" parent="WIyWlLk6GJQsqaUBKTNV-1" source="ucVGV_VNWv9GXHvt-POz-39" target="dA3KQazC7g9zLnKCbOtr-169">
          <mxGeometry width="50" height="50" relative="1" as="geometry">
            <mxPoint x="460" y="620" as="sourcePoint" />
            <mxPoint x="370" y="640" as="targetPoint" />
          </mxGeometry>
        </mxCell>
        <mxCell id="dA3KQazC7g9zLnKCbOtr-185" value="" style="shape=waypoint;sketch=0;size=6;pointerEvents=1;points=[];fillColor=none;resizable=0;rotatable=0;perimeter=centerPerimeter;snapToPoint=1;fontSize=16;" vertex="1" parent="WIyWlLk6GJQsqaUBKTNV-1">
          <mxGeometry x="580" y="470" width="20" height="20" as="geometry" />
        </mxCell>
        <mxCell id="dA3KQazC7g9zLnKCbOtr-188" value="" style="endArrow=none;html=1;rounded=0;entryX=0.123;entryY=-0.195;entryDx=0;entryDy=0;entryPerimeter=0;" edge="1" parent="WIyWlLk6GJQsqaUBKTNV-1" target="dA3KQazC7g9zLnKCbOtr-170">
          <mxGeometry width="50" height="50" relative="1" as="geometry">
            <mxPoint x="610" y="500" as="sourcePoint" />
            <mxPoint x="390" y="660" as="targetPoint" />
          </mxGeometry>
        </mxCell>
        <mxCell id="dA3KQazC7g9zLnKCbOtr-189" value="" style="endArrow=none;html=1;rounded=0;" edge="1" parent="WIyWlLk6GJQsqaUBKTNV-1">
          <mxGeometry width="50" height="50" relative="1" as="geometry">
            <mxPoint x="530" y="460" as="sourcePoint" />
            <mxPoint x="460" y="460" as="targetPoint" />
          </mxGeometry>
        </mxCell>
        <mxCell id="dA3KQazC7g9zLnKCbOtr-190" value="" style="endArrow=none;html=1;rounded=0;entryX=0.002;entryY=0.776;entryDx=0;entryDy=0;entryPerimeter=0;exitX=1;exitY=0;exitDx=0;exitDy=0;" edge="1" parent="WIyWlLk6GJQsqaUBKTNV-1" source="ucVGV_VNWv9GXHvt-POz-32" target="dA3KQazC7g9zLnKCbOtr-173">
          <mxGeometry width="50" height="50" relative="1" as="geometry">
            <mxPoint x="1180" y="800" as="sourcePoint" />
            <mxPoint x="1271" y="670" as="targetPoint" />
          </mxGeometry>
        </mxCell>
        <mxCell id="dA3KQazC7g9zLnKCbOtr-191" value="" style="endArrow=none;html=1;rounded=0;entryX=0.755;entryY=1.043;entryDx=0;entryDy=0;entryPerimeter=0;exitX=0;exitY=1;exitDx=0;exitDy=0;" edge="1" parent="WIyWlLk6GJQsqaUBKTNV-1" source="ucVGV_VNWv9GXHvt-POz-32" target="dA3KQazC7g9zLnKCbOtr-174">
          <mxGeometry width="50" height="50" relative="1" as="geometry">
            <mxPoint x="1293" y="706" as="sourcePoint" />
            <mxPoint x="1281" y="680" as="targetPoint" />
          </mxGeometry>
        </mxCell>
        <mxCell id="dA3KQazC7g9zLnKCbOtr-192" value="" style="endArrow=none;html=1;rounded=0;" edge="1" parent="WIyWlLk6GJQsqaUBKTNV-1">
          <mxGeometry width="50" height="50" relative="1" as="geometry">
            <mxPoint x="1060" y="780" as="sourcePoint" />
            <mxPoint x="990" y="880" as="targetPoint" />
          </mxGeometry>
        </mxCell>
        <mxCell id="dA3KQazC7g9zLnKCbOtr-193" value="" style="endArrow=none;html=1;rounded=0;entryX=0.465;entryY=1.01;entryDx=0;entryDy=0;entryPerimeter=0;" edge="1" parent="WIyWlLk6GJQsqaUBKTNV-1" target="dA3KQazC7g9zLnKCbOtr-177">
          <mxGeometry width="50" height="50" relative="1" as="geometry">
            <mxPoint x="1090" y="800" as="sourcePoint" />
            <mxPoint x="1301" y="700" as="targetPoint" />
          </mxGeometry>
        </mxCell>
        <mxCell id="dA3KQazC7g9zLnKCbOtr-194" value="" style="endArrow=none;html=1;rounded=0;" edge="1" parent="WIyWlLk6GJQsqaUBKTNV-1">
          <mxGeometry width="50" height="50" relative="1" as="geometry">
            <mxPoint x="1150" y="760" as="sourcePoint" />
            <mxPoint x="1050" y="770" as="targetPoint" />
          </mxGeometry>
        </mxCell>
        <mxCell id="dA3KQazC7g9zLnKCbOtr-195" value="" style="endArrow=none;html=1;rounded=0;entryX=-0.049;entryY=0.586;entryDx=0;entryDy=0;exitX=1;exitY=0.5;exitDx=0;exitDy=0;entryPerimeter=0;" edge="1" parent="WIyWlLk6GJQsqaUBKTNV-1" source="ucVGV_VNWv9GXHvt-POz-32" target="dA3KQazC7g9zLnKCbOtr-175">
          <mxGeometry width="50" height="50" relative="1" as="geometry">
            <mxPoint x="1333" y="746" as="sourcePoint" />
            <mxPoint x="1321" y="720" as="targetPoint" />
          </mxGeometry>
        </mxCell>
        <mxCell id="dA3KQazC7g9zLnKCbOtr-196" value="" style="endArrow=none;html=1;rounded=0;entryX=-0.03;entryY=0.49;entryDx=0;entryDy=0;exitX=1;exitY=1;exitDx=0;exitDy=0;entryPerimeter=0;" edge="1" parent="WIyWlLk6GJQsqaUBKTNV-1" source="ucVGV_VNWv9GXHvt-POz-32" target="dA3KQazC7g9zLnKCbOtr-176">
          <mxGeometry width="50" height="50" relative="1" as="geometry">
            <mxPoint x="1343" y="756" as="sourcePoint" />
            <mxPoint x="1331" y="730" as="targetPoint" />
          </mxGeometry>
        </mxCell>
      </root>
    </mxGraphModel>
  </diagram>
</mxfile>
